<?xml version="1.0" encoding="utf-8"?>
<!-- Generator: Adobe Illustrator 27.5.0, SVG Export Plug-In . SVG Version: 6.00 Build 0)  -->
<svg version="1.1" xmlns="http://www.w3.org/2000/svg" xmlns:xlink="http://www.w3.org/1999/xlink" x="0px" y="0px"
	 viewBox="0 0 3710 3710" style="enable-background:new 0 0 3710 3710;" xml:space="preserve">
<g id="Background">
	<g>
		<g>
			<rect style="fill:#FFFFFF;" width="3710" height="3710"/>
		</g>
	</g>
</g>
<g id="Illustration">
	<g>
		<linearGradient id="SVGID_1_" gradientUnits="userSpaceOnUse" x1="3498.2134" y1="3678.8123" x2="1534.7722" y2="1588.6981">
			<stop  offset="0" style="stop-color:#B37CFF"/>
			<stop  offset="1" style="stop-color:#F895E7"/>
		</linearGradient>
		<path style="opacity:0.3;fill:url(#SVGID_1_);" d="M2908.692,2840.267c-72.482,74.712-137.337,118.631-186.992,151.786
			c-484.274,323.354-1037.853,230.156-1209.006,198.301c-276.134-51.395-509.229-87.651-709.5-268.587
			C348.12,2510.625,370.254,1652.951,717.986,1121.66c41.231-62.996,388.437-577.663,943.214-650.185
			c13.569-1.774,23.693-2.784,32.561-3.723c85.823-9.087,617.649-57.044,1051.3,306.269
			c62.075,52.006,161.972,145.813,254.608,288.883C3338.392,1586.032,3339.465,2396.243,2908.692,2840.267z"/>
		<g>
			
				<linearGradient id="SVGID_00000063618684909475749460000004180428826747305651_" gradientUnits="userSpaceOnUse" x1="1403.3232" y1="1432.8556" x2="1013.0089" y2="541.54">
				<stop  offset="0" style="stop-color:#53D8FF"/>
				<stop  offset="1" style="stop-color:#3840F7"/>
			</linearGradient>
			<path style="fill:url(#SVGID_00000063618684909475749460000004180428826747305651_);" d="M2397.372,1563.495
				c-21.456,488.738-466.508,866.164-994.053,843.005s-937.811-438.133-916.355-926.872
				c21.456-488.738,466.508-866.164,994.053-843.005C2008.562,659.783,2418.828,1074.757,2397.372,1563.495z"/>
			<ellipse style="opacity:0.19;fill:#FFFFFF;" cx="1390.421" cy="1457.654" rx="750.261" ry="708.757"/>
			<g style="opacity:0.68;">
				<g>
					<path style="fill:#FFFFFF;" d="M1686.996,1525.845c0,0,0.061,14.641-0.31,42.127c-0.393,27.473-1.255,67.775-3.931,119.004
						c-2.673,51.219-7.213,113.393-16.018,184.327c-8.858,70.888-21.427,150.725-43.039,236.123
						c-10.904,42.642-24.04,86.716-41.734,130.905c-8.909,22.055-18.955,44.153-31.094,65.631
						c-12.189,21.383-26.295,42.494-44.865,60.361c-9.292,8.856-19.831,16.837-31.895,22.39c-12.005,5.582-25.72,8.253-39.213,6.804
						c-13.527-1.318-26.413-6.67-37.646-14.048c-11.293-7.391-21.153-16.703-30.012-26.788
						c-17.694-20.285-31.653-43.605-43.905-67.804c-12.22-24.258-22.599-49.623-31.908-75.559
						c-18.529-51.927-32.77-106.166-44.594-161.518c-11.773-55.379-21.014-111.957-28.311-169.217
						c-14.544-114.543-21.441-231.81-22.113-349.07c-0.099-58.627,1.888-117.237,5.047-175.54
						c3.246-58.299,8.051-116.287,14.651-173.619c6.63-57.322,15.034-114.002,25.896-169.538
						c10.907-55.51,24.126-109.964,41.602-162.187c8.766-26.09,18.647-51.608,30.334-76.059
						c11.767-24.364,25.22-47.899,42.521-68.316c8.668-10.141,18.351-19.5,29.488-26.847c11.073-7.345,23.794-12.54,37.05-13.73
						c3.251-0.293,6.714-0.351,9.876-0.233c3.359,0.174,6.614,0.551,9.862,1.108c6.479,1.168,12.752,3.197,18.703,5.842
						c11.903,5.341,22.453,13.015,31.845,21.595c18.787,17.293,33.414,37.912,46.112,58.906
						c12.663,21.082,23.291,42.855,32.732,64.649c18.805,43.651,32.955,87.382,44.777,129.755
						c23.424,84.874,37.358,164.494,47.174,235.252c4.856,35.402,8.604,68.64,11.518,99.423c2.843,30.79,4.901,59.122,6.437,84.727
						c3.048,51.216,4.073,91.524,4.551,119.001C1687.041,1511.181,1686.996,1525.845,1686.996,1525.845z M1674.292,1525.835
						c0,0,0.112-14.589-0.215-41.95c-0.351-27.358-1.187-67.493-3.987-118.496c-1.412-25.5-3.333-53.711-6.021-84.376
						c-2.634-30.665-5.989-63.792-10.469-99.079c-4.49-35.28-10.07-72.727-17.247-111.97
						c-7.181-39.236-15.887-80.298-27.073-122.596c-11.245-42.258-24.788-85.88-42.91-129.374
						c-9.098-21.711-19.365-43.393-31.612-64.345c-12.273-20.867-26.448-41.314-44.528-58.353
						c-9.036-8.455-19.146-15.977-30.461-21.216c-11.32-5.215-23.799-7.983-36.397-6.581c-12.503,1.277-24.488,6.318-35.033,13.491
						c-10.597,7.171-19.889,16.349-28.225,26.346c-16.646,20.121-29.651,43.471-40.985,67.686
						c-11.261,24.305-20.755,49.718-29.143,75.71c-16.722,52.036-29.223,106.349-39.411,161.711
						c-10.145,55.389-17.834,111.924-23.751,169.086c-11.838,114.35-16.227,231.217-15.833,347.969
						c-0.328,116.726,5.561,233.55,19.069,347.667c6.779,57.047,15.498,113.412,26.735,168.562
						c11.286,55.117,24.983,109.106,42.896,160.673c8.997,25.752,19.049,50.908,30.869,74.877
						c11.842,23.904,25.362,46.854,42.261,66.549c8.451,9.793,17.806,18.745,28.32,25.749c10.474,7.001,22.231,11.95,34.45,13.242
						c12.221,1.357,24.553-1.246,35.586-6.447c11.076-5.211,20.96-12.783,29.754-21.321c17.596-17.211,31.231-37.912,42.983-58.981
						c11.718-21.164,21.442-43.042,30.052-64.913c17.107-43.822,29.765-87.667,40.219-130.105
						c10.408-42.471,18.448-83.651,25.075-122.976c6.615-39.331,11.746-76.837,15.867-112.16
						c4.118-35.326,7.183-68.483,9.614-99.168c2.474-30.682,4.244-58.905,5.551-84.415c2.594-51.016,3.396-91.161,3.75-118.522
						C1674.373,1540.447,1674.292,1525.835,1674.292,1525.835z"/>
				</g>
				<g>
					<path style="fill:#FFFFFF;" d="M2081.196,1525.979c0,0-0.099,4.69-0.29,13.776c-0.095,4.543-0.214,10.184-0.354,16.89
						c-0.147,6.703-0.199,14.448-0.854,23.337c-0.528,8.863-1.116,18.758-1.764,29.649c-0.671,10.888-2.116,22.658-3.285,35.444
						c-1.028,12.796-3.161,26.427-5.119,41.01c-1.745,14.615-4.764,29.964-7.594,46.241c-0.745,4.061-1.396,8.197-2.246,12.35
						c-0.901,4.143-1.814,8.341-2.739,12.589c-1.85,8.499-3.746,17.211-5.687,26.129c-2.274,8.84-4.599,17.883-6.977,27.129
						c-1.197,4.621-2.407,9.292-3.63,14.012c-1.402,4.671-2.819,9.394-4.25,14.163c-11.05,38.263-25.933,78.801-44.549,120.872
						c-18.681,42.036-41.51,85.53-69.741,128.758c-28.216,43.199-61.854,86.146-101.794,126.323
						c-39.699,40.4-86.67,76.955-139.516,107.552c-6.468,4.068-13.422,7.339-20.229,10.931c-3.419,1.77-6.847,3.54-10.28,5.313
						l-5.156,2.665c-1.732,0.865-3.532,1.593-5.298,2.399c-7.097,3.146-14.222,6.303-21.375,9.476
						c-1.795,0.777-3.562,1.626-5.387,2.34l-5.517,2.052c-3.682,1.37-7.371,2.743-11.066,4.117
						c-14.638,5.923-30.058,9.915-45.335,14.677c-7.766,1.93-15.61,3.677-23.454,5.532c-3.936,0.862-7.833,1.947-11.819,2.632
						c-3.99,0.659-7.988,1.321-11.992,1.986c-4.004,0.662-8.015,1.324-12.032,1.99c-4.015,0.682-8.034,1.386-12.115,1.678
						c-8.132,0.8-16.291,1.603-24.476,2.409c-4.084,0.521-8.21,0.524-12.331,0.675c-4.122,0.131-8.252,0.259-12.389,0.39
						c-4.135,0.131-8.278,0.262-12.426,0.393c-4.359,0.01-8.315-0.216-12.503-0.312c-8.274-0.321-16.548-0.351-24.893-0.914
						c-8.368-0.813-16.761-1.629-25.178-2.445l-6.318-0.626l-6.251-1.026c-4.171-0.685-8.347-1.373-12.53-2.062
						c-4.183-0.688-8.371-1.377-12.566-2.068c-4.184-0.744-8.298-1.862-12.46-2.78c-33.4-6.962-66.188-18.201-98.088-32.019
						l-11.95-5.284l-5.986-2.648l-5.823-2.999c-7.769-4.005-15.556-8.02-23.36-12.045c-15.115-8.919-30.546-17.516-45.033-27.722
						c-7.357-4.926-14.84-9.711-21.841-15.201c-7.093-5.356-14.325-10.574-21.346-16.083c-6.858-5.713-13.729-11.439-20.612-17.175
						l-5.152-4.323l-4.941-4.566l-9.897-9.151l-9.916-9.167c-3.249-3.12-6.332-6.414-9.51-9.617
						c-6.261-6.496-12.755-12.806-18.856-19.495c-6.014-6.771-12.037-13.553-18.07-20.347c-3.079-3.346-5.946-6.873-8.778-10.436
						l-8.579-10.629l-8.592-10.649c-2.829-3.582-5.438-7.332-8.17-10.996c-5.374-7.391-10.899-14.7-16.173-22.196
						c-10.13-15.277-20.629-30.394-29.878-46.346c-9.844-15.601-18.382-31.996-27.34-48.211c-4.277-8.21-8.261-16.582-12.412-24.884
						l-6.169-12.491l-5.657-12.74c-3.736-8.515-7.632-16.978-11.248-25.562c-3.431-8.666-6.864-17.339-10.301-26.018
						c-3.586-8.627-6.541-17.489-9.644-26.313l-4.637-13.245c-1.544-4.418-3.147-8.82-4.444-13.32
						c-5.474-17.912-11.151-35.805-15.6-54.058l-3.554-13.638l-1.777-6.821l-1.528-6.883l-6.045-27.568l-1.512-6.899l-1.259-6.945
						l-2.488-13.907l-2.488-13.917c-0.86-4.635-1.668-9.276-2.247-13.956c-2.498-18.689-5.394-37.349-6.913-56.175
						c-4.149-37.545-5.263-75.362-5.848-113.137l0.588-28.296l0.293-14.068c0.102-4.687,0.509-9.449,0.749-14.172l1.685-28.384
						c0.61-9.449,1.757-18.807,2.61-28.214c1.531-18.823,4.44-37.476,6.95-56.162c0.582-4.68,1.394-9.322,2.258-13.956l2.498-13.91
						l2.498-13.904l1.265-6.945l1.517-6.896l6.066-27.558l1.533-6.88l1.783-6.821l3.565-13.628
						c4.463-18.25,10.152-36.136,15.64-54.038c1.299-4.497,2.907-8.896,4.454-13.311l4.647-13.238
						c3.11-8.817,6.071-17.676,9.663-26.3c3.443-8.672,6.884-17.339,10.32-25.998c3.622-8.581,7.524-17.034,11.266-25.542
						l5.666-12.734l6.177-12.481c4.158-8.292,8.146-16.66,12.43-24.864c8.968-16.198,17.517-32.576,27.369-48.161
						c9.257-15.939,19.767-31.036,29.899-46.297c5.276-7.489,10.802-14.789,16.178-22.173c2.733-3.658,5.342-7.407,8.173-10.983
						l8.594-10.636l8.58-10.62c2.832-3.556,5.7-7.08,8.779-10.42c6.033-6.785,12.057-13.56,18.07-20.321
						c6.101-6.683,12.594-12.983,18.854-19.469c3.178-3.199,6.26-6.486,9.508-9.6l9.913-9.154l9.894-9.136l4.94-4.559l5.15-4.315
						c6.881-5.726,13.75-11.442,20.605-17.147c7.019-5.498,14.247-10.705,21.336-16.052c6.998-5.477,14.474-10.256,21.831-15.167
						c14.487-10.172,29.914-18.738,45.022-27.621c7.801-4.007,15.583-8.004,23.348-11.993l5.82-2.986l5.981-2.635l11.941-5.257
						c31.885-13.714,64.602-24.961,97.937-31.955c33.239-7.129,66.782-11.809,100.064-11.999c4.191-0.097,8.223-0.336,12.528-0.316
						c4.121,0.133,8.236,0.267,12.344,0.4c4.109,0.134,8.21,0.267,12.306,0.4c4.096,0.154,8.179,0.159,12.281,0.682
						c8.193,0.813,16.36,1.622,24.499,2.429c4.089,0.3,8.1,1.005,12.107,1.69c4.011,0.667,8.015,1.332,12.012,1.998
						c3.997,0.665,7.988,1.331,11.971,1.994c3.979,0.683,7.87,1.773,11.798,2.637c7.829,1.86,15.66,3.61,23.411,5.544
						c15.252,4.759,30.629,8.792,45.257,14.666c3.691,1.367,7.376,2.73,11.055,4.092l5.511,2.042
						c1.823,0.711,3.588,1.557,5.382,2.329c7.147,3.156,14.267,6.3,21.358,9.431c1.764,0.8,3.563,1.526,5.294,2.386l5.152,2.653
						c3.432,1.767,6.857,3.53,10.275,5.29c6.803,3.579,13.753,6.834,20.219,10.887c52.839,30.464,99.768,66.991,139.469,107.319
						c39.935,40.118,73.579,83.019,101.812,126.172c28.253,43.179,51.11,86.637,69.82,128.644
						c18.646,42.039,33.561,82.553,44.641,120.8c1.435,4.766,2.854,9.482,4.259,14.153c1.227,4.72,2.439,9.387,3.64,14.005
						c2.385,9.243,4.717,18.286,6.996,27.122c1.947,8.912,3.849,17.621,5.705,26.116c0.927,4.251,1.844,8.446,2.747,12.589
						c0.853,4.149,1.508,8.286,2.256,12.347c2.841,16.27,5.871,31.616,7.627,46.228c1.968,14.579,4.112,28.211,5.149,41.003
						c1.177,12.776,2.633,24.569,3.31,35.425c0.655,10.855,1.25,20.721,1.782,29.551c0.661,8.83,0.722,16.647,0.875,23.396
						c0.146,6.745,0.27,12.422,0.369,16.991c0.198,9.145,0.3,13.861,0.3,13.861L2081.196,1525.979z M2066.634,1525.838
						c0,0-0.078-4.657-0.229-13.687c-0.075-4.513-0.169-10.121-0.279-16.785c-0.116-6.664-0.135-14.385-0.746-23.107
						c-0.482-8.725-1.019-18.469-1.612-29.197c-0.612-10.724-1.995-22.376-3.092-34.999c-0.957-12.645-3.01-26.116-4.88-40.525
						c-1.658-14.444-4.579-29.61-7.302-45.697c-0.718-4.015-1.342-8.102-2.164-12.209c-0.873-4.094-1.757-8.243-2.652-12.442
						c-1.79-8.401-3.624-17.011-5.502-25.828c-2.208-8.738-4.466-17.68-6.775-26.818c-1.161-4.569-2.335-9.187-3.523-13.854
						c-1.364-4.615-2.743-9.282-4.137-13.996c-10.589-37.876-24.779-78.079-42.731-119.83
						c-17.995-41.724-40.075-84.94-67.499-127.955c-27.417-42.986-60.203-85.775-99.245-125.903
						c-38.856-40.261-84.714-77.167-136.897-107.536c-6.375-4.056-13.228-7.312-19.937-10.898c-3.371-1.763-6.75-3.53-10.134-5.302
						l-5.082-2.658c-1.708-0.864-3.483-1.591-5.224-2.394c-6.997-3.143-14.022-6.298-21.074-9.467
						c-1.771-0.773-3.512-1.624-5.311-2.34l-5.44-2.052c-3.631-1.37-7.269-2.743-10.914-4.118
						c-14.431-5.946-29.667-9.882-44.745-14.644c-7.666-1.924-15.411-3.666-23.156-5.52c-3.886-0.862-7.734-1.949-11.671-2.632
						c-3.94-0.662-7.888-1.324-11.841-1.99c-3.954-0.664-7.915-1.329-11.882-1.998c-3.966-0.683-7.936-1.39-11.952-1.686
						c-8.01-0.81-16.049-1.622-24.113-2.437c-4.01-0.526-8.122-0.539-12.213-0.698c-4.095-0.141-8.197-0.28-12.306-0.419
						c-4.108-0.141-8.223-0.28-12.344-0.421c-3.937-0.01-8.161,0.246-12.237,0.356c-32.938,0.298-66.103,5.051-98.956,12.214
						c-32.952,7.001-65.282,18.258-96.67,32.149l-11.761,5.298l-5.89,2.653l-5.731,3.004c-7.642,4.007-15.302,8.025-22.979,12.05
						c-14.866,8.92-30.038,17.504-44.275,27.689c-7.227,4.921-14.531,9.762-21.382,15.271c-6.935,5.383-14.004,10.621-20.865,16.147
						c-6.696,5.729-13.405,11.47-20.126,17.222l-5.028,4.33l-4.82,4.574l-9.65,9.161l-9.667,9.171
						c-3.166,3.12-6.168,6.414-9.263,9.617c-6.096,6.496-12.421,12.796-18.356,19.476c-5.846,6.762-11.703,13.53-17.569,20.315
						c-2.994,3.337-5.778,6.857-8.527,10.41l-8.328,10.6l-8.34,10.613c-2.746,3.569-5.271,7.309-7.92,10.957
						c-5.207,7.365-10.563,14.641-15.669,22.104c-9.797,15.211-19.966,30.236-28.887,46.1
						c-9.513,15.503-17.727,31.799-26.359,47.893c-4.114,8.151-7.938,16.464-11.927,24.7l-5.926,12.39l-5.418,12.642
						c-3.577,8.446-7.312,16.834-10.769,25.346c-3.273,8.584-6.549,17.178-9.828,25.779c-3.428,8.545-6.227,17.329-9.175,26.064
						l-4.404,13.114c-1.466,4.372-2.992,8.728-4.213,13.182c-5.121,17.745-10.685,35.382-14.901,53.425l-3.401,13.464l-1.702,6.735
						l-1.454,6.794l-5.751,27.217l-1.44,6.808l-1.188,6.857l-2.346,13.727l-2.348,13.73c-0.817,4.572-1.572,9.154-2.116,13.773
						c-2.411,18.427-5.224,36.821-6.668,55.382c-0.809,9.263-1.917,18.528-2.481,27.791l-1.561,27.784
						c-0.221,4.644-0.61,9.236-0.696,13.923l-0.247,14.068l-0.492,27.978c0.287,74.494,7.248,149.007,21.743,221.787l5.773,27.204
						l1.459,6.794l1.707,6.732l3.412,13.461c4.23,18.033,9.806,35.664,14.941,53.399c1.224,4.451,2.754,8.804,4.224,13.176
						l4.414,13.107c2.954,8.728,5.76,17.506,9.195,26.044c3.285,8.597,6.568,17.185,9.847,25.766
						c3.463,8.505,7.205,16.886,10.788,25.326l5.427,12.632l5.934,12.38c3.995,8.23,7.824,16.536,11.944,24.681
						c8.643,16.08,16.867,32.357,26.389,47.847c8.929,15.847,19.109,30.852,28.909,46.051c5.108,7.453,10.466,14.72,15.674,22.078
						c2.65,3.645,5.176,7.381,7.923,10.944l8.342,10.603l8.329,10.587c2.749,3.55,5.534,7.063,8.528,10.397
						c5.866,6.775,11.722,13.537,17.57,20.285c5.935,6.673,12.259,12.963,18.354,19.453c3.096,3.196,6.096,6.487,9.262,9.6
						l9.664,9.158l9.648,9.145l4.818,4.569l5.026,4.32c6.719,5.742,13.425,11.472,20.118,17.194
						c6.858,5.513,13.923,10.741,20.855,16.116c6.847,5.497,14.145,10.331,21.371,15.238c14.237,10.151,29.405,18.699,44.264,27.584
						c7.673,4.009,15.329,8.007,22.967,12l5.726,2.989l5.887,2.639l11.751,5.274c31.373,13.789,63.632,25.051,96.519,32.085
						c4.097,0.927,8.149,2.055,12.269,2.812c4.131,0.701,8.257,1.403,12.377,2.101c4.121,0.701,8.235,1.403,12.344,2.101
						l6.159,1.049l6.183,0.643c8.241,0.849,16.458,1.695,24.651,2.54c8.249,0.603,16.59,0.682,24.841,1.049
						c4.081,0.111,8.38,0.38,12.262,0.36c4.094-0.141,8.181-0.285,12.262-0.429c4.081-0.141,8.155-0.285,12.223-0.426
						c4.066-0.164,8.135-0.177,12.163-0.708c8.072-0.823,16.118-1.639,24.137-2.458c4.023-0.298,7.986-1.01,11.943-1.694
						c3.961-0.672,7.915-1.341,11.862-2.006c3.946-0.668,7.887-1.334,11.82-1.996c3.929-0.685,7.77-1.776,11.649-2.638
						c7.73-1.858,15.461-3.605,23.113-5.532c15.052-4.759,30.245-8.735,44.666-14.631c3.641-1.367,7.275-2.734,10.902-4.097
						l5.435-2.039c1.797-0.715,3.537-1.56,5.306-2.33c7.047-3.153,14.066-6.293,21.057-9.42c1.74-0.8,3.513-1.524,5.22-2.383
						l5.079-2.648c3.382-1.763,6.758-3.523,10.128-5.28c6.705-3.569,13.555-6.811,19.927-10.852
						c52.176-30.236,97.991-67.116,136.849-107.306c39.037-40.069,71.829-82.809,99.263-125.749
						c27.446-42.966,49.554-86.146,67.579-127.837c17.982-41.721,32.204-81.901,42.822-119.758
						c1.396-4.713,2.779-9.374,4.147-13.992c1.19-4.664,2.367-9.279,3.532-13.848c2.316-9.135,4.58-18.073,6.794-26.804
						c1.885-8.814,3.725-17.421,5.52-25.821c0.899-4.199,1.786-8.345,2.661-12.439c0.824-4.104,1.451-8.191,2.173-12.206
						c2.734-16.08,5.666-31.242,7.334-45.684c1.881-14.408,3.945-27.873,4.91-40.515c1.106-12.615,2.499-24.29,3.117-34.982
						c0.599-10.692,1.143-20.403,1.631-29.102c0.617-8.659,0.643-16.457,0.765-23.16c0.117-6.706,0.216-12.347,0.294-16.89
						c0.158-9.086,0.24-13.776,0.24-13.776L2066.634,1525.838z"/>
				</g>
				<g>
					<path style="fill:#FFFFFF;" d="M642.657,1182.383c0,0,24.91-0.256,68.501-0.705c43.592-0.324,105.866-0.783,180.594-1.334
						c74.729-0.324,161.912-0.701,255.323-1.104c93.411-0.141,193.049-0.288,292.687-0.436
						c99.638,0.177,199.276,0.354,292.687,0.518c46.705,0.183,91.854,0.36,134.667,0.531c42.813,0.233,83.291,0.456,120.655,0.659
						c74.729,0.334,137.002,1.121,180.595,1.432c43.592,0.479,68.501,0.754,68.501,0.754c0.355,0.003,0.64,0.295,0.636,0.649
						c-0.004,0.351-0.288,0.633-0.636,0.636c0,0-24.909,0.275-68.501,0.757c-43.593,0.311-105.866,1.095-180.595,1.429
						c-37.364,0.206-77.842,0.426-120.655,0.662c-42.813,0.167-87.962,0.344-134.667,0.528
						c-93.411,0.167-193.049,0.344-292.687,0.518c-99.638-0.147-199.276-0.295-292.687-0.433
						c-93.411-0.406-180.594-0.783-255.323-1.105c-74.728-0.554-137.002-1.013-180.594-1.334
						c-43.592-0.449-68.501-0.708-68.501-0.708c-0.529-0.003-0.953-0.439-0.947-0.967
						C641.715,1182.809,642.138,1182.389,642.657,1182.383z"/>
				</g>
				<g>
					<path style="fill:#FFFFFF;" d="M873.841,848.612c0,0,17.685-0.256,48.634-0.705c30.948-0.325,75.161-0.783,128.216-1.334
						c26.528-0.184,55.266-0.38,85.662-0.59c30.396-0.18,62.45-0.518,95.61-0.515c66.319-0.141,137.059-0.288,207.799-0.436
						c70.74,0.177,141.48,0.354,207.799,0.518c33.16,0.029,65.213,0.275,95.61,0.531c30.396,0.233,59.134,0.456,85.661,0.659
						c53.055,0.334,97.268,1.121,128.217,1.432c30.949,0.479,48.633,0.754,48.633,0.754c0.356,0.007,0.638,0.298,0.633,0.652
						c-0.006,0.347-0.288,0.629-0.633,0.633c0,0-17.684,0.275-48.633,0.757c-30.949,0.311-75.162,1.095-128.217,1.429
						c-26.527,0.206-55.266,0.426-85.661,0.662c-30.397,0.256-62.45,0.498-95.61,0.528c-66.319,0.167-137.059,0.341-207.799,0.518
						c-70.74-0.147-141.48-0.295-207.799-0.433c-33.16,0-65.214-0.338-95.61-0.515c-30.396-0.21-59.134-0.41-85.662-0.59
						c-53.055-0.554-97.268-1.013-128.216-1.334c-30.949-0.449-48.634-0.708-48.634-0.708c-0.529-0.007-0.951-0.443-0.943-0.97
						C872.905,849.038,873.325,848.622,873.841,848.612z"/>
				</g>
				<g>
					<path style="fill:#FFFFFF;" d="M573.406,1516.153c0,0,27.074-0.255,74.453-0.705c47.378-0.324,115.063-0.783,196.283-1.334
						c81.221-0.324,175.979-0.701,277.505-1.105c101.526-0.141,209.82-0.288,318.115-0.436
						c108.294,0.177,216.589,0.354,318.115,0.518c50.763,0.184,99.834,0.361,146.366,0.531c46.533,0.233,90.527,0.456,131.138,0.659
						c81.221,0.593,148.905,1.085,196.284,1.432c47.379,0.479,74.452,0.754,74.452,0.754c0.355,0.003,0.64,0.295,0.636,0.649
						c-0.004,0.351-0.288,0.633-0.636,0.636c0,0-27.073,0.275-74.452,0.757c-47.379,0.344-115.063,0.839-196.284,1.429
						c-40.611,0.206-84.604,0.426-131.138,0.662c-46.532,0.167-95.603,0.344-146.366,0.528
						c-101.526,0.167-209.82,0.344-318.115,0.518c-108.294-0.147-216.589-0.295-318.115-0.432
						c-101.526-0.406-196.284-0.783-277.505-1.105c-81.22-0.554-148.905-1.013-196.283-1.334
						c-47.379-0.449-74.453-0.708-74.453-0.708c-0.529-0.003-0.953-0.436-0.948-0.967
						C572.463,1516.579,572.887,1516.16,573.406,1516.153z"/>
				</g>
				<g>
					<path style="fill:#FFFFFF;" d="M642.657,1849.923c0,0,24.91-0.256,68.501-0.705c43.592-0.325,105.866-0.783,180.594-1.334
						c74.729-0.324,161.912-0.701,255.323-1.104c93.411-0.141,193.049-0.288,292.687-0.436
						c99.638,0.177,199.276,0.354,292.687,0.518c46.705,0.184,91.854,0.361,134.667,0.531c42.813,0.233,83.291,0.456,120.655,0.659
						c74.729,0.334,137.002,1.121,180.595,1.432c43.592,0.478,68.501,0.754,68.501,0.754c0.355,0.003,0.64,0.295,0.636,0.649
						c-0.004,0.351-0.288,0.633-0.636,0.636c0,0-24.909,0.275-68.501,0.757c-43.593,0.311-105.866,1.095-180.595,1.429
						c-37.364,0.206-77.842,0.426-120.655,0.662c-42.813,0.167-87.962,0.344-134.667,0.528
						c-93.411,0.167-193.049,0.344-292.687,0.518c-99.638-0.148-199.276-0.295-292.687-0.433
						c-93.411-0.406-180.594-0.783-255.323-1.105c-74.728-0.554-137.002-1.013-180.594-1.334
						c-43.592-0.449-68.501-0.708-68.501-0.708c-0.529-0.003-0.953-0.439-0.947-0.967
						C641.715,1850.349,642.138,1849.93,642.657,1849.923z"/>
				</g>
				<path style="fill:#FFFFFF;" d="M2034.197,2188.007H902.356c-1.853,0-3.356-1.501-3.356-3.356s1.503-3.356,3.356-3.356h1131.841
					c1.854,0,3.356,1.501,3.356,3.356S2036.05,2188.007,2034.197,2188.007z"/>
			</g>
		</g>
		<g>
			
				<linearGradient id="SVGID_00000059990699239977575560000003390710587395866521_" gradientUnits="userSpaceOnUse" x1="711.9338" y1="2257.8274" x2="3237.251" y2="2257.8274">
				<stop  offset="0" style="stop-color:#2B3582"/>
				<stop  offset="1" style="stop-color:#150E42"/>
			</linearGradient>
			<path style="fill:url(#SVGID_00000059990699239977575560000003390710587395866521_);" d="M711.934,1594.913v1241.384
				c0,102.12,73.423,185.63,165.531,188.262c409.095,11.692,1839.912,40.042,2229.343,33.68
				c66.933-1.094,121.155-60.458,123.086-134.62c7.509-288.39,19.705-981.872-25.428-1303.829
				c-9.505-67.801-61.141-118.501-123.017-120.694c-342.77-12.153-1859.53-50.744-2248.78-41.056
				C765.539,1459.712,711.934,1520.49,711.934,1594.913z"/>
			
				<linearGradient id="SVGID_00000075884802966888396060000009955685839746111924_" gradientUnits="userSpaceOnUse" x1="2024.9792" y1="1617.65" x2="1850.4534" y2="3302.5042">
				<stop  offset="0" style="stop-color:#A737D5"/>
				<stop  offset="1" style="stop-color:#EF497A"/>
			</linearGradient>
			<path style="fill:url(#SVGID_00000075884802966888396060000009955685839746111924_);" d="M782.214,1588.871v1179.4
				c0,59.624,43.183,108.206,96.973,109.098l2171.597,29.736c53.328,0.884,97.042-46.669,97.24-105.781l3.633-1168.862
				c0.142-42.267-30.24-76.898-68.364-77.926L859.98,1504.751C817.34,1503.601,782.214,1541.598,782.214,1588.871z"/>
			<path style="opacity:0.12;fill:#FFFFFF;" d="M862.254,1629.087v1068.225c0,54.003,40.56,98.006,91.083,98.814l2039.689,26.933
				c50.089,0.801,91.147-42.27,91.334-95.81l3.412-1058.681c0.134-38.282-28.403-69.649-64.211-70.581l-2088.263-45.09
				C895.247,1551.855,862.254,1586.27,862.254,1629.087z"/>
			<path style="opacity:0.65;fill:#FFFFFF;" d="M3164.373,2955.12c-0.019,0-0.038,0-0.059,0l-2382.158-44.987
				c-1.665-0.032-2.991-1.408-2.96-3.075c0.032-1.665,1.379-2.879,3.074-2.959l2382.158,44.987c1.665,0.032,2.991,1.408,2.96,3.074
				C3167.357,2953.806,3166.012,2955.12,3164.373,2955.12z"/>
		</g>
		<g>
			
				<linearGradient id="SVGID_00000125602381740305735770000012829194692908412547_" gradientUnits="userSpaceOnUse" x1="1853.8953" y1="2053.72" x2="1682.7332" y2="2763.5391">
				<stop  offset="0" style="stop-color:#53D8FF"/>
				<stop  offset="1" style="stop-color:#3840F7"/>
			</linearGradient>
			<path style="fill:url(#SVGID_00000125602381740305735770000012829194692908412547_);" d="M1225.987,2379.792
				c-72.406-0.78-133.675-58.394-139.488-131.164l-13.227-165.301c-3.15-39.423,9.807-78.053,35.549-105.982
				c24.64-26.739,58.322-41.498,94.845-41.567l1290.594-2.373c40.417,0,75.715,16.145,99.663,45.467
				c24.504,30,33.751,70.787,25.374,111.908l-35.326,173.37c-14.684,72.059-84.867,128.512-159.768,128.512
				C2424.198,2392.664,1225.987,2379.792,1225.987,2379.792z"/>
			
				<linearGradient id="SVGID_00000140696621071830893030000003088826633293916335_" gradientUnits="userSpaceOnUse" x1="3303.3059" y1="660.044" x2="-298.6485" y2="4314.5845">
				<stop  offset="0" style="stop-color:#53D8FF"/>
				<stop  offset="1" style="stop-color:#3840F7"/>
			</linearGradient>
			<path style="fill:url(#SVGID_00000140696621071830893030000003088826633293916335_);" d="M2494.322,1966.969l-1290.593,2.373
				c-58.54,0.108-101.83,50.861-97,111.308l13.227,165.307c4.427,55.415,51.942,99.689,106.392,100.276l1196.6,12.862
				c59.108,0.635,116.336-43.74,128.135-101.646l35.326-173.368C2599.335,2020.642,2558.276,1966.851,2494.322,1966.969z"/>
			<g>
				<g>
					<path style="fill:#FFFFFF;" d="M1503.377,2086.131l-59.564,181.973h-0.234c-2.814,8.912-9.849,15.244-17.588,17.119h-0.235
						c-0.234,0-0.703,0.236-0.939,0.236h-0.469c-0.234,0-0.469,0.233-0.703,0.233h-0.469h-0.705h-0.469h-0.703h-0.469h-0.703h-0.47
						h-0.469h-0.703h-0.469c-0.234,0-0.469-0.233-0.705-0.233h-0.469c-0.234,0-0.703-0.236-0.937-0.236h-0.234
						c-7.739-1.875-14.774-8.207-17.822-17.119l-37.521-114.671l-37.521,114.671c-2.814,8.912-9.849,15.244-17.588,17.119h-0.235
						c-0.47,0-0.704,0.236-0.939,0.236h-0.469c-0.234,0-0.469,0.233-0.703,0.233h-0.47h-0.703h-0.469h-0.703h-0.469h-0.705h-0.469
						h-0.703h-0.469h-0.47c-0.234,0-0.469-0.233-0.703-0.233h-0.469c-0.469,0-0.703-0.236-0.937-0.236h-0.235
						c-7.974-1.875-14.774-8.207-17.824-17.119l-59.563-181.973v-0.469c-0.939-2.815-1.408-5.864-1.408-8.676
						c0-10.787,6.332-20.872,16.18-24.389c2.345-0.937,4.925-1.174,7.27-1.174c10.084,0,19.698,7.034,22.983,18.056
						c0.234,0.469,20.636,62.613,37.521,114.202c16.883-51.59,37.284-113.733,37.284-114.202c2.581-7.971,7.974-13.602,14.54-16.414
						l0.234-0.236c0.234,0,0.47-0.233,0.705-0.233h0.234c0.234,0,0.234-0.236,0.469-0.236h0.469
						c0.234-0.232,0.469-0.232,0.703-0.232l0.236-0.236c0.469,0,0.703,0,0.937-0.232h0.234c0.469,0,0.703,0,0.937-0.236h0.234h0.939
						h0.234c0.469,0,0.703,0,0.937-0.236h0.469h0.47h0.703h0.469c0.234,0.236,0.469,0.236,0.703,0.236h0.47h0.937
						c0.469,0.236,0.703,0.236,1.172,0.236c0.471,0.232,0.705,0.232,0.939,0.232c0.235,0,0.235,0,0.235,0.236
						c0.469,0,0.703,0,0.938,0.232h0.469c0,0,0.236,0.236,0.47,0.236h0.235c0.234,0,0.469,0.233,0.703,0.233l0.235,0.236
						c6.567,2.812,11.96,8.443,14.54,16.414c0,0.469,20.401,62.613,37.286,114.202c16.885-51.59,37.286-113.733,37.286-114.202
						c3.517-11.023,13.132-18.056,23.215-18.056c2.345,0,4.925,0.236,7.27,1.174c9.849,3.517,16.18,13.602,16.18,24.389
						c0,2.812-0.469,5.86-1.406,8.676V2086.131z"/>
					<path style="fill:#FFFFFF;" d="M1803.796,2086.131l-59.564,181.973h-0.234c-2.814,8.912-9.849,15.244-17.588,17.119h-0.234
						c-0.234,0-0.703,0.236-0.939,0.236h-0.469c-0.234,0-0.469,0.233-0.703,0.233h-0.469h-0.703h-0.47h-0.703h-0.469h-0.703h-0.471
						h-0.469h-0.703h-0.469c-0.235,0-0.469-0.233-0.705-0.233h-0.469c-0.234,0-0.703-0.236-0.937-0.236h-0.235
						c-7.738-1.875-14.774-8.207-17.822-17.119l-37.521-114.671l-37.521,114.671c-2.814,8.912-9.849,15.244-17.588,17.119h-0.234
						c-0.47,0-0.704,0.236-0.939,0.236h-0.468c-0.234,0-0.469,0.233-0.703,0.233h-0.469h-0.705h-0.469h-0.703h-0.469h-0.704h-0.469
						h-0.703h-0.469h-0.47c-0.235,0-0.469-0.233-0.703-0.233h-0.469c-0.469,0-0.703-0.236-0.937-0.236h-0.236
						c-7.973-1.875-14.772-8.207-17.822-17.119l-59.563-181.973v-0.469c-0.939-2.815-1.408-5.864-1.408-8.676
						c0-10.787,6.332-20.872,16.18-24.389c2.345-0.937,4.924-1.174,7.27-1.174c10.084,0,19.698,7.034,22.983,18.056
						c0.235,0.469,20.636,62.613,37.521,114.202c16.883-51.59,37.285-113.733,37.285-114.202c2.58-7.971,7.975-13.602,14.539-16.414
						l0.235-0.236c0.234,0,0.47-0.233,0.704-0.233h0.234c0.234,0,0.234-0.236,0.469-0.236h0.469
						c0.234-0.232,0.469-0.232,0.703-0.232l0.235-0.236c0.47,0,0.704,0,0.939-0.232h0.235c0.469,0,0.703,0,0.937-0.236h0.234h0.939
						h0.234c0.469,0,0.703,0,0.938-0.236h0.468h0.471h0.703h0.469c0.234,0.236,0.469,0.236,0.703,0.236h0.47h0.937
						c0.469,0.236,0.703,0.236,1.172,0.236c0.47,0.232,0.705,0.232,0.939,0.232c0.234,0,0.234,0,0.234,0.236
						c0.469,0,0.703,0,0.937,0.232h0.469c0,0,0.236,0.236,0.47,0.236h0.234c0.235,0,0.469,0.233,0.703,0.233l0.234,0.236
						c6.567,2.812,11.96,8.443,14.54,16.414c0,0.469,20.401,62.613,37.286,114.202c16.885-51.59,37.286-113.733,37.286-114.202
						c3.517-11.023,13.132-18.056,23.215-18.056c2.345,0,4.925,0.236,7.27,1.174c9.849,3.517,16.18,13.602,16.18,24.389
						c0,2.812-0.469,5.86-1.406,8.676V2086.131z"/>
					<path style="fill:#FFFFFF;" d="M2104.215,2086.131l-59.564,181.973h-0.234c-2.814,8.912-9.849,15.244-17.588,17.119h-0.234
						c-0.234,0-0.703,0.236-0.939,0.236h-0.469c-0.235,0-0.469,0.233-0.703,0.233h-0.469h-0.704h-0.469h-0.703h-0.469h-0.703h-0.47
						h-0.469h-0.703h-0.469c-0.234,0-0.469-0.233-0.704-0.233h-0.469c-0.234,0-0.703-0.236-0.938-0.236h-0.234
						c-7.739-1.875-14.774-8.207-17.822-17.119l-37.52-114.671l-37.521,114.671c-2.814,8.912-9.849,15.244-17.588,17.119h-0.234
						c-0.47,0-0.705,0.236-0.939,0.236h-0.469c-0.235,0-0.469,0.233-0.703,0.233h-0.47h-0.703h-0.469h-0.703h-0.469h-0.705h-0.469
						h-0.703h-0.469h-0.471c-0.234,0-0.469-0.233-0.703-0.233h-0.469c-0.469,0-0.703-0.236-0.937-0.236h-0.234
						c-7.975-1.875-14.774-8.207-17.824-17.119l-59.563-181.973v-0.469c-0.939-2.815-1.408-5.864-1.408-8.676
						c0-10.787,6.333-20.872,16.18-24.389c2.345-0.937,4.925-1.174,7.27-1.174c10.083,0,19.698,7.034,22.982,18.056
						c0.234,0.469,20.636,62.613,37.521,114.202c16.883-51.59,37.285-113.733,37.285-114.202
						c2.581-7.971,7.974-13.602,14.539-16.414l0.234-0.236c0.235,0,0.471-0.233,0.705-0.233h0.234c0.235,0,0.235-0.236,0.469-0.236
						h0.469c0.234-0.232,0.469-0.232,0.703-0.232l0.236-0.236c0.469,0,0.703,0,0.937-0.232h0.234c0.469,0,0.703,0,0.937-0.236h0.235
						h0.939h0.235c0.469,0,0.703,0,0.937-0.236h0.469h0.47h0.703h0.469c0.234,0.236,0.468,0.236,0.703,0.236h0.471h0.937
						c0.469,0.236,0.703,0.236,1.172,0.236c0.47,0.232,0.705,0.232,0.939,0.232c0.234,0,0.234,0,0.234,0.236
						c0.469,0,0.703,0,0.937,0.232h0.469c0,0,0.236,0.236,0.47,0.236h0.234c0.234,0,0.469,0.233,0.703,0.233l0.234,0.236
						c6.567,2.812,11.96,8.443,14.539,16.414c0,0.469,20.402,62.613,37.286,114.202c16.885-51.59,37.286-113.733,37.286-114.202
						c3.517-11.023,13.132-18.056,23.215-18.056c2.345,0,4.925,0.236,7.27,1.174c9.849,3.517,16.18,13.602,16.18,24.389
						c0,2.812-0.469,5.86-1.406,8.676V2086.131z"/>
				</g>
				<path style="fill:#FFFFFF;" d="M2167.99,2289.289c0,5.561-4.508,10.069-10.069,10.069l0,0c-5.561,0-10.069-4.508-10.069-10.069
					v-278.572c0-5.561,4.508-10.069,10.069-10.069l0,0c5.561,0,10.069,4.508,10.069,10.069V2289.289z"/>
			</g>
			<path style="fill:#FFFFFF;" d="M2700.423,2521.127l-150.19-183.233c-1.187-1.448-1.545-3.403-0.948-5.178
				c0.596-1.772,2.064-3.116,3.884-3.555l132.658-31.836c5.388-1.293,9.479-5.688,10.384-11.153
				c0.905-5.469-1.552-10.947-6.237-13.908l-378.504-239.212c-4.592-2.903-10.459-2.839-14.985,0.165
				c-4.526,3.001-6.868,8.382-5.981,13.739l78.694,475.194c0.946,5.712,5.357,10.222,11.043,11.295
				c5.687,1.073,11.44-1.519,14.401-6.491l73.432-123.26c0.919-1.543,2.539-2.532,4.331-2.644c1.791-0.111,3.523,0.669,4.626,2.083
				l139.873,179.401c8.014,10.282,22.632,12.575,33.41,5.246l44.889-30.523c5.741-3.906,9.578-10.043,10.57-16.916
				C2706.766,2533.469,2704.825,2526.498,2700.423,2521.127z"/>
		</g>
		<g>
			<g>
				
					<linearGradient id="SVGID_00000134240234859225937830000015038723200027787943_" gradientUnits="userSpaceOnUse" x1="11544.5801" y1="3162.9204" x2="11601.834" y2="2802.7751" gradientTransform="matrix(1 0 0 1 -10487.1201 0)">
					<stop  offset="0" style="stop-color:#CB236D"/>
					<stop  offset="1" style="stop-color:#4C246D"/>
				</linearGradient>
				
					<rect x="1064.893" y="2889.61" style="fill:url(#SVGID_00000134240234859225937830000015038723200027787943_);" width="26.49" height="286.471"/>
				
					<linearGradient id="SVGID_00000083057064709150006240000016942320482656150411_" gradientUnits="userSpaceOnUse" x1="11567.0225" y1="3165.6897" x2="11625.6279" y2="2797.0437" gradientTransform="matrix(1 0 0 1 -10487.1201 0)">
					<stop  offset="0" style="stop-color:#CB236D"/>
					<stop  offset="1" style="stop-color:#4C246D"/>
				</linearGradient>
				<path style="fill:url(#SVGID_00000083057064709150006240000016942320482656150411_);" d="M1194.144,3181.603H962.133v-8.97
					c0-4.569,3.704-8.273,8.273-8.273h214.821c4.925,0,8.917,3.992,8.917,8.917V3181.603z"/>
				
					<linearGradient id="SVGID_00000175291325588450682250000004204354865466604448_" gradientUnits="userSpaceOnUse" x1="11520.6699" y1="3176.4788" x2="11581.5166" y2="2793.731" gradientTransform="matrix(1 0 0 1 -10487.1201 0)">
					<stop  offset="0" style="stop-color:#FDF53F"/>
					<stop  offset="1" style="stop-color:#D93C65"/>
				</linearGradient>
				<path style="fill:url(#SVGID_00000175291325588450682250000004204354865466604448_);" d="M1238.019,2879.043
					c0,16.651-13.624,30.275-30.275,30.275H958.277c-16.651,0-30.275-13.624-30.275-30.275v-27.375
					c0-16.651,13.624-30.275,30.275-30.275h249.467c16.652,0,30.275,13.624,30.275,30.275V2879.043z"/>
			</g>
			<g>
				
					<linearGradient id="SVGID_00000181767051210386854770000006726461718907621249_" gradientUnits="userSpaceOnUse" x1="1941.0663" y1="3228.6292" x2="1894.3076" y2="3320.5876" gradientTransform="matrix(-0.9764 -0.2161 -0.2161 0.9764 3385.2073 288.5267)">
					<stop  offset="0" style="stop-color:#2B3582"/>
					<stop  offset="1" style="stop-color:#150E42"/>
				</linearGradient>
				<path style="fill:url(#SVGID_00000181767051210386854770000006726461718907621249_);" d="M843.318,3089.082
					c0,0-85.638,36.886-80.732,75.489c0,0,88.525-16.977,104.367-42.28c15.842-25.302,7.113-39.959,7.113-39.959L843.318,3089.082z"
					/>
				
					<linearGradient id="SVGID_00000101061529595775890750000013849726671631214747_" gradientUnits="userSpaceOnUse" x1="1852.1477" y1="3265.2234" x2="1898.7291" y2="3265.2234" gradientTransform="matrix(-0.9764 -0.2161 -0.2161 0.9764 3385.2073 288.5267)">
					<stop  offset="0" style="stop-color:#F9B776"/>
					<stop  offset="1" style="stop-color:#F47960"/>
				</linearGradient>
				<path style="fill:url(#SVGID_00000101061529595775890750000013849726671631214747_);" d="M864.293,3046.924l4.348,37.585
					c0.656,5.671-2.494,11.267-7.866,13.202c-2.69,0.969-6.221,1.633-10.851,1.657c-6.533,0.033-12.319-4.262-14.064-10.558
					l-8.424-30.4L864.293,3046.924z"/>
				
					<linearGradient id="SVGID_00000104672234710912810750000014936073102089308588_" gradientUnits="userSpaceOnUse" x1="781.4966" y1="3151.2583" x2="972.796" y2="2738.4543">
					<stop  offset="0" style="stop-color:#CB236D"/>
					<stop  offset="1" style="stop-color:#4C246D"/>
				</linearGradient>
				<path style="fill:url(#SVGID_00000104672234710912810750000014936073102089308588_);" d="M1051.374,2758.703
					c0,0-157.515-7.289-235.893,38.419s3.974,265.082,3.974,265.082s20.475,4.4,49.955-11.353c0,0-42.073-160.591,31.008-188.53
					c82.161-31.41,167.142-23.768,167.142-23.768l-15.744-74.888L1051.374,2758.703z"/>
				
					<linearGradient id="SVGID_00000114753636748281468740000003812272317242634631_" gradientUnits="userSpaceOnUse" x1="1913.9336" y1="3321.6038" x2="1751.8229" y2="3533.5945" gradientTransform="matrix(-0.9764 -0.2161 -0.2161 0.9764 3385.2073 288.5267)">
					<stop  offset="0" style="stop-color:#2B3582"/>
					<stop  offset="1" style="stop-color:#150E42"/>
				</linearGradient>
				<path style="fill:url(#SVGID_00000114753636748281468740000003812272317242634631_);" d="M779.797,3147.631
					c17.909-3.925,71.022-25.931,79.089-25.636c8.066,0.296,19.496,12.382,19.496,12.382s1.968,6.606-3.8,16.092
					c-13.686,10.671-43.164,30.264-77.438,32.409c-25.211,1.579-40.38-8.452-49.057-18.183
					C755.682,3157.3,767.871,3150.245,779.797,3147.631z"/>
				
					<linearGradient id="SVGID_00000028284359365417196550000011134637738628375689_" gradientUnits="userSpaceOnUse" x1="1832.8063" y1="3367.5168" x2="1958.0658" y2="3367.5168" gradientTransform="matrix(-0.9764 -0.2161 -0.2161 0.9764 3385.2073 288.5267)">
					<stop  offset="0" style="stop-color:#53D8FF"/>
					<stop  offset="1" style="stop-color:#3840F7"/>
				</linearGradient>
				<path style="fill:url(#SVGID_00000028284359365417196550000011134637738628375689_);" d="M797.143,3182.878
					c34.274-2.145,63.752-21.738,77.438-32.409c-3.899,6.409-11.326,14.132-25.293,22.024
					c-34.635,19.569-91.88,16.715-103.228,12.311c-9.094-3.529-6.283-12.022,2.026-20.109
					C756.763,3174.425,771.932,3184.457,797.143,3182.878z"/>
				
					<linearGradient id="SVGID_00000010306157787491601050000000654609340651832198_" gradientUnits="userSpaceOnUse" x1="1818.4641" y1="3308.2122" x2="1862.1835" y2="3308.2122" gradientTransform="matrix(-0.9764 -0.2161 -0.2161 0.9764 3385.2073 288.5267)">
					<stop  offset="0" style="stop-color:#F9B776"/>
					<stop  offset="1" style="stop-color:#F47960"/>
				</linearGradient>
				<path style="fill:url(#SVGID_00000010306157787491601050000000654609340651832198_);" d="M897.187,3114.704
					c-1.173,4.436-13.718,17.759-20.97,25.187c-3.446,3.53-8.451,5.045-13.271,3.992c-3.057-0.668-6.51-1.711-9.496-3.333
					c-4.484-2.435-6.043-8.13-3.584-12.6l18.343-33.359L897.187,3114.704z"/>
				
					<linearGradient id="SVGID_00000055664515994708327280000005589701309352013485_" gradientUnits="userSpaceOnUse" x1="912.4947" y1="3211.9646" x2="1103.7936" y2="2799.1619">
					<stop  offset="0" style="stop-color:#CB236D"/>
					<stop  offset="1" style="stop-color:#4C246D"/>
				</linearGradient>
				<path style="fill:url(#SVGID_00000055664515994708327280000005589701309352013485_);" d="M1207.474,2745.493
					c0,0,13.749,97.539-26.005,117.476c-39.753,19.937-126.947,32.989-156.979,83.578
					c-30.032,50.589-83.971,149.885-133.056,178.415c0,0-28.033-9.116-36.226-22.904c0,0,58.263-153.162,82.57-190.391
					c21.049-32.239,51.829-78.687,95.559-98.775c12.518-5.75,13.499-19.031,11.295-32.629l-4.013-24.763L1207.474,2745.493z"/>
				
					<linearGradient id="SVGID_00000137817352404143673430000008920943481754917815_" gradientUnits="userSpaceOnUse" x1="876.6548" y1="2192.8206" x2="962.2355" y2="3154.3481">
					<stop  offset="0" style="stop-color:#FDF53F"/>
					<stop  offset="1" style="stop-color:#D93C65"/>
				</linearGradient>
				<path style="fill:url(#SVGID_00000137817352404143673430000008920943481754917815_);" d="M839.03,2634.924
					c55.733,15.91,80.679-140.943,80.455-144.757l85.451,99.91c0,0-50.915,89.591-127.797,99.127
					c-19.452,2.412-35.997-0.953-49.876-7.311C837.488,2665.147,839.824,2648.607,839.03,2634.924z"/>
				
					<linearGradient id="SVGID_00000115485988892060536110000013014728818111331512_" gradientUnits="userSpaceOnUse" x1="1975.8038" y1="2848.0493" x2="2128.3091" y2="2848.0493" gradientTransform="matrix(-0.9764 -0.2161 -0.2161 0.9764 3385.2073 288.5267)">
					<stop  offset="0" style="stop-color:#F9B776"/>
					<stop  offset="1" style="stop-color:#F47960"/>
				</linearGradient>
				<path style="fill:url(#SVGID_00000115485988892060536110000013014728818111331512_);" d="M735.819,2583.585
					c24.291-9.982,44.896,9.938,44.896,9.938c24.07,24.637,43.159,37.074,58.314,41.401c0.794,13.682-1.542,30.223-11.768,46.969
					c-30.029-13.757-47.535-41.569-54.745-55.447c-2.596-4.996-8.683-7.112-13.751-4.661c-5.15,2.49-10.455,6.287-10.788,11.446
					c-0.655,10.174-12.761,10.774-12.833,7.016c-0.07-3.758,9.376-23.851,9.376-23.851s-27.91,17.903-38.774,24.751
					c-10.864,6.849-20.118-4.453-20.118-4.453S711.529,2593.568,735.819,2583.585z"/>
				
					<linearGradient id="SVGID_00000133499653018157402180000010079846000271076009_" gradientUnits="userSpaceOnUse" x1="1080.1035" y1="2478.2617" x2="1009.6246" y2="3137.7395">
					<stop  offset="0" style="stop-color:#FDF53F"/>
					<stop  offset="1" style="stop-color:#D93C65"/>
				</linearGradient>
				<path style="fill:url(#SVGID_00000133499653018157402180000010079846000271076009_);" d="M1186.004,2425.624
					c0,0-74.895-51.095-255.781,41.313c0,0-18.628,23.614-9.901,50.234c8.726,26.621,116.125,170.692,120.298,238.327
					c0,0,73.417,43.217,168.721,0.373C1209.34,2755.871,1241.301,2577.279,1186.004,2425.624z"/>
				
					<linearGradient id="SVGID_00000026880233866310014600000007740311277464731041_" gradientUnits="userSpaceOnUse" x1="1806.5109" y1="2573.8044" x2="1907.6946" y2="2573.8044" gradientTransform="matrix(-0.9764 -0.2161 -0.2161 0.9764 3385.2073 288.5267)">
					<stop  offset="0" style="stop-color:#F9B776"/>
					<stop  offset="1" style="stop-color:#F47960"/>
				</linearGradient>
				<path style="fill:url(#SVGID_00000026880233866310014600000007740311277464731041_);" d="M1011.717,2345.601l47.927,72.695
					c2.939,5.758,2.325,12.728-1.708,17.78c-8.151,10.211-25.165,23.937-54.203,15.091c-8.638-2.632-15.248-9.659-17.331-18.446
					l-15.342-64.736L1011.717,2345.601z"/>
				
					<linearGradient id="SVGID_00000052105309397563243570000003244540426599110815_" gradientUnits="userSpaceOnUse" x1="1251.1479" y1="2496.5413" x2="1180.6691" y2="3156.0178">
					<stop  offset="0" style="stop-color:#FDF53F"/>
					<stop  offset="1" style="stop-color:#D93C65"/>
				</linearGradient>
				<path style="fill:url(#SVGID_00000052105309397563243570000003244540426599110815_);" d="M1241.467,2628.145
					c5.069-35.255-88.091-103.586-88.091-103.586l32.629-98.935c0,0,177.771,126.864,140.386,230.467
					c-5.36,14.852-13.353,25.672-23.1,33.341C1284.464,2650.823,1258.935,2634.778,1241.467,2628.145z"/>
				
					<linearGradient id="SVGID_00000096751085234729390510000002408516844659401918_" gradientUnits="userSpaceOnUse" x1="1344.4954" y1="2284.7893" x2="1022.3077" y2="3034.8821">
					<stop  offset="0" style="stop-color:#F9B776"/>
					<stop  offset="1" style="stop-color:#F47960"/>
				</linearGradient>
				<path style="fill:url(#SVGID_00000096751085234729390510000002408516844659401918_);" d="M1111.496,2637.928
					c0,0,105.384,29.434,127.248-2.645c1.483-2.176,2.353-4.573,2.722-7.138c17.468,6.633,42.998,22.678,61.823,61.287
					c-50.036,39.363-146.51-4.762-172.723-17.989c-4.312-2.176-9.27-2.601-13.881-1.162c-9.323,2.909-25.479,7.427-34.48,6.933
					c-13.169-0.724-27.303,46.865-49.715,34.818C1032.491,2712.031,1042.677,2630.726,1111.496,2637.928z"/>
				<g>
					
						<linearGradient id="SVGID_00000134210992656197120690000000919467322918343855_" gradientUnits="userSpaceOnUse" x1="19.9054" y1="150.3481" x2="-123.6415" y2="340.2489" gradientTransform="matrix(-0.9985 -0.0559 -0.0559 0.9985 959.921 2154.9912)">
						<stop  offset="0" style="stop-color:#F9B776"/>
						<stop  offset="1" style="stop-color:#F47960"/>
					</linearGradient>
					<path style="fill:url(#SVGID_00000134210992656197120690000000919467322918343855_);" d="M902.329,2299.579
						c-0.07,1.24,21.746,76.723,32.888,115.181c3.402,11.741,16.267,17.878,27.543,13.157l8.639-3.617
						c11.807-4.943,32.44-20.175,33.591-32.923l-3.921-91.175C1001.069,2300.204,903.891,2271.702,902.329,2299.579z"/>
					
						<linearGradient id="SVGID_00000145736930279545909170000002068421397617871289_" gradientUnits="userSpaceOnUse" x1="-72.01" y1="139.1341" x2="79.0854" y2="139.1341" gradientTransform="matrix(-0.9985 -0.0559 -0.0559 0.9985 959.921 2154.9912)">
						<stop  offset="0" style="stop-color:#2B3582"/>
						<stop  offset="1" style="stop-color:#150E42"/>
					</linearGradient>
					<path style="fill:url(#SVGID_00000145736930279545909170000002068421397617871289_);" d="M1000.389,2274.927
						c2.248-8.537,2.397-21.278-13.741-26.878c-16.402-5.692-27.454,3.753-33.22,11.149c-2.332,2.99-6.424,3.773-9.794,2.034
						c-1.918-0.99-4.293-1.161-6.968,0.849c-3.605,2.709-8.796,1.532-11.117-2.334c-4.459-7.426-12.889-15.062-28.108-11.063
						c-27.008,7.096-27.455,37.751-18.663,54.923c8.791,17.172,37.636,7.814,51.618-2.455c10.631-7.808,25.822-1.93,32.494,1.338
						c2.112,1.035,3.621,2.979,4.134,5.276l7.55,33.88c8.394,0.823,16.642,2.337,24.901,3.956c-0.134-2.519-0.195-4.669-0.152-6.26
						c0.312-11.236,13.38-19.095,19.104-22.004c1.876-0.953,3.266-2.619,3.873-4.635c2.145-7.123,4.536-23.384-16.107-28.153
						C1001.871,2283.551,999.26,2279.215,1000.389,2274.927z"/>
					
						<linearGradient id="SVGID_00000166643760241045036930000011226191894622905248_" gradientUnits="userSpaceOnUse" x1="-160.6624" y1="280.8268" x2="-59.2077" y2="176.7371" gradientTransform="matrix(-0.9985 -0.0559 -0.0559 0.9985 959.921 2154.9912)">
						<stop  offset="0" style="stop-color:#F9B776"/>
						<stop  offset="1" style="stop-color:#F47960"/>
					</linearGradient>
					<path style="fill:url(#SVGID_00000166643760241045036930000011226191894622905248_);" d="M1003.543,2359.212
						c0,0-14.035-30.578-3.13-39.322c10.904-8.744,28.407-6.232,26.633,16.965
						C1024.838,2365.709,1003.543,2359.212,1003.543,2359.212z"/>
				</g>
			</g>
			<g>
				
					<linearGradient id="SVGID_00000018925530004726279630000016426600929864316070_" gradientUnits="userSpaceOnUse" x1="648.1698" y1="2148.481" x2="869.674" y2="2737.4805">
					<stop  offset="0" style="stop-color:#53D8FF"/>
					<stop  offset="1" style="stop-color:#3840F7"/>
				</linearGradient>
				<path style="fill:url(#SVGID_00000018925530004726279630000016426600929864316070_);" d="M976.933,2705.027
					c-0.188,0.01-0.376,0.014-0.566,0.013l-246.199-0.269c-6.086-0.005-11.015-4.944-11.008-11.031
					c0.006-6.088,4.963-11.117,11.033-11.008l246.199,0.269c6.086,0.005,11.015,4.944,11.008,11.03
					C987.393,2699.928,982.756,2704.739,976.933,2705.027z"/>
				
					<linearGradient id="SVGID_00000155856907372347062570000001445879677992955279_" gradientUnits="userSpaceOnUse" x1="516.047" y1="2198.168" x2="737.5506" y2="2787.166">
					<stop  offset="0" style="stop-color:#53D8FF"/>
					<stop  offset="1" style="stop-color:#3840F7"/>
				</linearGradient>
				<path style="fill:url(#SVGID_00000155856907372347062570000001445879677992955279_);" d="M508.845,2481.493h205.036
					c15.126,0,28.893,8.728,35.345,22.409l94.788,200.992H589.209c-9.747,0-18.505-5.956-22.087-15.021l-73.504-185.989
					C489.37,2493.139,497.29,2481.493,508.845,2481.493z"/>
			</g>
			<g>
				<g>
					
						<linearGradient id="SVGID_00000012442561402246271750000016618207225575952036_" gradientUnits="userSpaceOnUse" x1="11018.8633" y1="2978.8933" x2="11256.54" y2="2978.8933" gradientTransform="matrix(1 0 0 1 -10487.1201 0)">
						<stop  offset="0" style="stop-color:#9CFFFB"/>
						<stop  offset="1" style="stop-color:#9BFFFA"/>
					</linearGradient>
					<path style="fill:url(#SVGID_00000012442561402246271750000016618207225575952036_);" d="M542.086,3233.077
						c-1.364,0-2.75-0.264-4.083-0.819c-5.248-2.186-7.673-8.077-5.415-13.158l216.98-488.331c2.256-5.08,8.339-7.426,13.592-5.243
						c5.248,2.186,7.673,8.078,5.415,13.159l-216.98,488.331C549.911,3230.806,546.096,3233.077,542.086,3233.077z"/>
					
						<linearGradient id="SVGID_00000028315185627903417620000006713447978799778690_" gradientUnits="userSpaceOnUse" x1="11046.3105" y1="2978.8923" x2="11283.9873" y2="2978.8923" gradientTransform="matrix(1 0 0 1 -10487.1201 0)">
						<stop  offset="0" style="stop-color:#9CFFFB"/>
						<stop  offset="1" style="stop-color:#9BFFFA"/>
					</linearGradient>
					<path style="fill:url(#SVGID_00000028315185627903417620000006713447978799778690_);" d="M786.523,3233.077
						c-4.009,0-7.825-2.269-9.509-6.061l-216.979-488.331c-2.259-5.081,0.167-10.973,5.415-13.159
						c5.245-2.186,11.333,0.16,13.592,5.243l216.98,488.331c2.258,5.081-0.167,10.973-5.416,13.158
						C789.274,3232.813,787.887,3233.077,786.523,3233.077z"/>
					
						<linearGradient id="SVGID_00000181080639306840897510000006819198921387573122_" gradientUnits="userSpaceOnUse" x1="11690.5078" y1="2978.8933" x2="11928.1846" y2="2978.8933" gradientTransform="matrix(1 0 0 1 -10487.1201 0)">
						<stop  offset="0" style="stop-color:#9CFFFB"/>
						<stop  offset="1" style="stop-color:#9BFFFA"/>
					</linearGradient>
					<path style="fill:url(#SVGID_00000181080639306840897510000006819198921387573122_);" d="M1213.731,3233.077
						c-1.364,0-2.75-0.264-4.083-0.819c-5.249-2.186-7.673-8.077-5.415-13.158l216.979-488.331c2.258-5.08,8.337-7.426,13.593-5.243
						c5.248,2.186,7.673,8.078,5.415,13.159l-216.98,488.331C1221.556,3230.806,1217.741,3233.077,1213.731,3233.077z"/>
					
						<linearGradient id="SVGID_00000091733800696772483980000013341996252290602127_" gradientUnits="userSpaceOnUse" x1="11717.9541" y1="2978.8923" x2="11955.6299" y2="2978.8923" gradientTransform="matrix(1 0 0 1 -10487.1201 0)">
						<stop  offset="0" style="stop-color:#9CFFFB"/>
						<stop  offset="1" style="stop-color:#9BFFFA"/>
					</linearGradient>
					<path style="fill:url(#SVGID_00000091733800696772483980000013341996252290602127_);" d="M1458.166,3233.077
						c-4.009,0-7.825-2.269-9.509-6.061l-216.979-488.331c-2.258-5.081,0.166-10.973,5.415-13.159
						c5.246-2.186,11.333,0.16,13.593,5.243l216.979,488.331c2.258,5.081-0.167,10.973-5.415,13.158
						C1460.918,3232.813,1459.53,3233.077,1458.166,3233.077z"/>
				</g>
				
					<linearGradient id="SVGID_00000098207914699056780480000014226946343434277795_" gradientUnits="userSpaceOnUse" x1="10962.8193" y1="2729.4409" x2="11970.915" y2="2729.4409" gradientTransform="matrix(1 0 0 1 -10487.1201 0)">
					<stop  offset="0" style="stop-color:#9CFFFB"/>
					<stop  offset="1" style="stop-color:#9BFFFA"/>
				</linearGradient>
				<path style="fill:url(#SVGID_00000098207914699056780480000014226946343434277795_);" d="M1483.617,2715.692
					c0.553-3.203-0.2-6.515-2.055-9.031s-4.616-3.974-7.53-3.974H486.933c-3.832,0-7.4,2.187-9.464,5.801
					c-2.065,3.614-2.341,8.157-0.734,12.052l10.697,25.918c2.449,5.936,7.756,9.737,13.596,9.737h966.231
					c5.433,0,10.102-4.313,11.134-10.285L1483.617,2715.692z"/>
			</g>
		</g>
		<g>
			
				<linearGradient id="SVGID_00000129924144668199481840000000469167196330561922_" gradientUnits="userSpaceOnUse" x1="2680.5278" y1="373.0716" x2="2979.1611" y2="1268.9746">
				<stop  offset="0" style="stop-color:#53D8FF"/>
				<stop  offset="1" style="stop-color:#3840F7"/>
			</linearGradient>
			<path style="fill:url(#SVGID_00000129924144668199481840000000469167196330561922_);" d="M2892.891,553.95l-220.337-11.463
				c-17.996-0.936-32.353,13.092-31.844,31.223l5.696,202.631c0.465,16.559,14.792,29.21,31.797,28.37l209.225-10.335
				c14.183-0.7,25.894-13.275,26.313-28.178l5.102-181.508C2919.299,568.524,2907.756,554.722,2892.891,553.95z"/>
			<g>
				<path style="fill:#FFFFFF;" d="M2776.082,755.862c-45.761,0-82.991-37.23-82.991-82.991c0-45.761,37.23-82.991,82.991-82.991
					c45.761,0,82.991,37.229,82.991,82.991C2859.073,718.632,2821.843,755.862,2776.082,755.862z M2776.082,603.787
					c-38.093,0-69.084,30.991-69.084,69.083c0,38.093,30.991,69.084,69.084,69.084c38.093,0,69.083-30.991,69.083-69.084
					C2845.165,634.778,2814.174,603.787,2776.082,603.787z"/>
				<path style="fill-rule:evenodd;clip-rule:evenodd;fill:#FFFFFF;" d="M2750.083,704.831v-59.664
					c0-6.376,6.939-10.327,12.422-7.073l50.275,29.832c5.37,3.186,5.37,10.96,0,14.147l-50.275,29.833
					C2757.023,715.158,2750.083,711.206,2750.083,704.831z"/>
			</g>
		</g>
		<g>
			
				<linearGradient id="SVGID_00000078759527922911551080000010705127233457548680_" gradientUnits="userSpaceOnUse" x1="557.2589" y1="2010.7151" x2="807.098" y2="2760.2344">
				<stop  offset="0" style="stop-color:#FDF53F"/>
				<stop  offset="0.6645" style="stop-color:#E57A58"/>
				<stop  offset="1" style="stop-color:#D93C65"/>
			</linearGradient>
			<path style="fill:url(#SVGID_00000078759527922911551080000010705127233457548680_);" d="M734.924,2162.039l-184.335-9.59
				c-15.056-0.783-27.067,10.952-26.641,26.121l4.765,169.523c0.39,13.854,12.375,24.437,26.602,23.734l175.039-8.646
				c11.865-0.586,21.663-11.106,22.013-23.575l4.269-151.851C757.017,2174.232,747.36,2162.686,734.924,2162.039z"/>
			<g>
				<path style="fill:#FFFFFF;" d="M701.724,2319.496h-98.317c-3.728,0-7.009-2.458-8.055-6.037l-27.868-95.392l-28.265-4.92
					c-4.566-0.793-7.622-5.139-6.827-9.705s5.146-7.627,9.705-6.827l33.414,5.815c3.151,0.547,5.718,2.842,6.616,5.913l27.57,94.373
					h85.051l12.607-67.939c0.844-4.556,5.22-7.548,9.78-6.719c4.556,0.846,7.565,5.225,6.719,9.781l-13.881,74.799
					C709.237,2316.611,705.767,2319.496,701.724,2319.496z"/>
				<path style="fill:#FFFFFF;" d="M711.361,2242.301H580.465c-4.635,0-8.391-3.756-8.391-8.391c0-4.635,3.756-8.391,8.391-8.391
					h130.895c4.635,0,8.391,3.756,8.391,8.391C719.751,2238.545,715.995,2242.301,711.361,2242.301z"/>
				<g>
					<path style="fill:#FFFFFF;" d="M625.775,2307.749c-4.635,0-8.391-3.756-8.391-8.391v-63.77c0-4.635,3.756-8.391,8.391-8.391
						s8.391,3.756,8.391,8.391v63.77C634.166,2303.992,630.41,2307.749,625.775,2307.749z"/>
					<path style="fill:#FFFFFF;" d="M672.763,2307.749c-4.634,0-8.391-3.756-8.391-8.391v-63.77c0-4.635,3.756-8.391,8.391-8.391
						c4.635,0,8.391,3.756,8.391,8.391v63.77C681.154,2303.992,677.398,2307.749,672.763,2307.749z"/>
				</g>
				<path style="fill:#FFFFFF;" d="M704.648,2275.864H593.891c-4.635,0-8.391-3.756-8.391-8.391s3.756-8.391,8.391-8.391h110.757
					c4.635,0,8.391,3.756,8.391,8.391S709.283,2275.864,704.648,2275.864z"/>
				<g>
					<path style="fill:#FFFFFF;" d="M630.988,2336.217c0,6.418-5.203,11.621-11.622,11.621c-6.418,0-11.621-5.203-11.621-11.621
						c0-6.418,5.203-11.621,11.621-11.621C625.785,2324.596,630.988,2329.799,630.988,2336.217z"/>
					<path style="fill:#FFFFFF;" d="M701.821,2336.217c0,6.418-5.203,11.621-11.621,11.621c-6.418,0-11.621-5.203-11.621-11.621
						c0-6.418,5.203-11.621,11.621-11.621C696.618,2324.596,701.821,2329.799,701.821,2336.217z"/>
				</g>
			</g>
		</g>
		<g>
			
				<linearGradient id="SVGID_00000178922895484951719910000015058832103265611926_" gradientUnits="userSpaceOnUse" x1="2928.2859" y1="1952.2556" x2="3179.8708" y2="2707.0134">
				<stop  offset="0" style="stop-color:#53D8FF"/>
				<stop  offset="1" style="stop-color:#3840F7"/>
			</linearGradient>
			<path style="fill:url(#SVGID_00000178922895484951719910000015058832103265611926_);" d="M3107.192,2104.637l-185.624-9.657
				c-15.161-0.788-27.256,11.029-26.826,26.304l4.799,170.707c0.392,13.95,12.461,24.608,26.788,23.9l176.262-8.706
				c11.948-0.59,21.814-11.184,22.167-23.74l4.298-152.912C3129.439,2116.916,3119.715,2105.288,3107.192,2104.637z"/>
			<g>
				<path style="fill:#FFFFFF;" d="M3077.44,2269.151h-130.689c-11.16,0-20.241-9.082-20.241-20.243v-93.766
					c0-11.16,9.081-20.242,20.241-20.242h130.689c11.16,0,20.241,9.082,20.241,20.242v93.766
					C3097.681,2260.069,3088.601,2269.151,3077.44,2269.151z M2946.751,2151.681c-1.907,0-3.459,1.554-3.459,3.461v93.766
					c0,1.907,1.552,3.461,3.459,3.461h130.689c1.908,0,3.46-1.554,3.46-3.461v-93.766c0-1.907-1.552-3.461-3.46-3.461H2946.751z"/>
				<path style="fill:#FFFFFF;" d="M3010.865,2211.108c-1.699,0-3.401-0.515-4.854-1.547l-72.875-51.678
					c-3.779-2.681-4.67-7.919-1.99-11.698c2.681-3.782,7.92-4.667,11.698-1.99l68.017,48.234l67.109-47.67
					c3.778-2.684,9.017-1.796,11.699,1.983c2.684,3.776,1.796,9.014-1.981,11.698l-71.965,51.118
					C3014.269,2210.59,3012.568,2211.108,3010.865,2211.108z"/>
				<path style="fill:#FFFFFF;" d="M2939.365,2270.121l-2.609-16.575l1.234,8.299l-7.062-4.523
					c1.498-2.432,27.686-48.233,44.923-78.427c2.296-4.025,7.419-5.428,11.446-3.127c4.025,2.298,5.425,7.42,3.127,11.445
					c0,0-11.242,19.692-22.508,39.391c-5.634,9.853-11.273,19.702-15.516,27.096
					C2943.351,2269.463,2943.351,2269.463,2939.365,2270.121z"/>
				<path style="fill:#FFFFFF;" d="M3081.962,2270.128c-4.007-0.649-4.007-0.649-13.065-16.427
					c-4.243-7.391-9.882-17.243-15.516-27.096c-11.265-19.695-22.508-39.391-22.508-39.391c-2.298-4.025-0.898-9.148,3.127-11.445
					c4.022-2.304,9.151-0.898,11.446,3.127c17.24,30.197,43.43,76.005,44.923,78.43l-7.063,4.52L3081.962,2270.128z"/>
			</g>
		</g>
		<g>
			
				<linearGradient id="SVGID_00000054985298653216860910000014009016860842920080_" gradientUnits="userSpaceOnUse" x1="2964.4897" y1="651.5001" x2="3216.0747" y2="1406.2572">
				<stop  offset="0" style="stop-color:#FDF53F"/>
				<stop  offset="0.6645" style="stop-color:#E57A58"/>
				<stop  offset="1" style="stop-color:#D93C65"/>
			</linearGradient>
			<path style="fill:url(#SVGID_00000054985298653216860910000014009016860842920080_);" d="M3143.396,803.881l-185.624-9.657
				c-15.161-0.789-27.256,11.029-26.827,26.303l4.799,170.708c0.393,13.95,12.461,24.608,26.788,23.9l176.262-8.707
				c11.948-0.59,21.815-11.184,22.167-23.739l4.299-152.912C3165.643,816.16,3155.919,804.533,3143.396,803.881z"/>
			<path style="fill:#FFFFFF;" d="M3061.383,835.869c-3.083-1.095-6.316,1.218-6.316,4.489v6.702v13.141v65.33
				c-6.457-5.312-15.471-8.623-25.464-8.623c-19.625,0-35.534,12.727-35.534,28.427c0,15.7,15.909,28.427,35.534,28.427
				c19.625,0,35.534-12.727,35.534-28.427c0-0.136-0.023-0.268-0.026-0.404h0.026v-84.672c14.076,2.133,23.64,12.822,29.238,21.553
				c2.351,3.665,7.988,1.812,7.758-2.537C3100.732,852.886,3073.891,840.313,3061.383,835.869z"/>
		</g>
		<g>
			<path style="fill:#FFFFFF;" d="M907.159,1376.111c-12.106,18.605-37.096,23.893-55.701,11.787
				c-18.605-12.106-23.893-37.097-11.787-55.701c12.106-18.605,37.096-23.892,55.701-11.786
				C913.976,1332.517,919.265,1357.507,907.159,1376.111z M853.065,1340.913c-7.302,11.222-4.114,26.292,7.108,33.594
				c11.222,7.302,26.291,4.112,33.593-7.11c7.302-11.221,4.113-26.291-7.108-33.593
				C875.435,1326.502,860.366,1329.691,853.065,1340.913z"/>
			<g>
				<path style="fill:#FFFFFF;" d="M801.428,1307.313c25.829-39.695,79.134-50.974,118.828-25.145c2.46,1.601,4.8,3.315,7.031,5.124
					c3.002,2.434,7.464,1.481,9.07-2.034l5.254-11.494c1.146-2.51,0.366-5.456-1.83-7.129c-2.08-1.584-4.228-3.107-6.453-4.555
					c-50.769-33.035-118.954-18.607-151.989,32.162c-2.503,3.847-4.718,7.797-6.67,11.823c-1.462,3.015-0.145,6.643,2.928,7.972
					l11.311,4.894c2.86,1.238,6.176,0.01,7.542-2.791C797.914,1313.135,799.56,1310.185,801.428,1307.313z"/>
				<path style="fill:#FFFFFF;" d="M749.531,1273.544c44.45-68.311,136.183-87.722,204.494-43.272l0.058,0.037
					c2.988,1.946,6.997,0.844,8.48-2.398l5.153-11.276c-0.812-2.812-1.336-4.623-2.148-7.436
					c-79.22-50.38-184.8-27.603-236.125,51.274c-4.48,6.885-8.369,13.984-11.73,21.228c-1.368,2.946,0.038,6.443,3.019,7.733
					l11.283,4.88c2.872,1.242,6.247,0.02,7.569-2.817C742.442,1285.372,745.74,1279.37,749.531,1273.544z"/>
				<path style="fill:#FFFFFF;" d="M697.634,1239.775c61.428-94.403,186.494-122.946,282.516-66.093
					c3.015,1.786,6.901,0.64,8.358-2.547l5.112-11.188c1.242-2.716,0.253-5.973-2.325-7.482
					c-106.856-62.528-245.525-30.613-313.751,74.238c-6.409,9.849-11.927,20.02-16.659,30.404c-1.349,2.961,0.054,6.457,3.039,7.75
					l11.268,4.874c2.938,1.272,6.304-0.077,7.636-2.988C687.044,1257.533,691.948,1248.513,697.634,1239.775z"/>
			</g>
		</g>
		<g>
			
				<linearGradient id="SVGID_00000180357180883278352150000005095028935824814498_" gradientUnits="userSpaceOnUse" x1="2797.0713" y1="1771.7274" x2="3051.0764" y2="2533.7454">
				<stop  offset="0" style="stop-color:#FDF53F"/>
				<stop  offset="0.6645" style="stop-color:#E57A58"/>
				<stop  offset="1" style="stop-color:#D93C65"/>
			</linearGradient>
			<path style="fill:url(#SVGID_00000180357180883278352150000005095028935824814498_);" d="M2950.301,1843.379l-187.41-9.75
				c-15.307-0.796-27.518,11.135-27.085,26.557l4.845,172.35c0.396,14.085,12.581,24.845,27.045,24.13l177.958-8.79
				c12.063-0.596,22.024-11.291,22.381-23.967l4.34-154.383C2972.762,1855.776,2962.944,1844.037,2950.301,1843.379z"/>
			<path style="fill:#FFFFFF;" d="M2925.744,1863.041h-132.49c-12.272,0-27.846,8.922-27.846,21.582v73.69
				c0,12.145,15.701,22.198,27.846,22.198h91.136c3.139,0,5.201,5.827,5.201,8.966v10.888c0,4.484,4.289,6.144,6.5,6.884
				c1.053,0.742,2.761,1.851,4.976,1.851c1.835,0,3.6-0.785,4.775-2.166l19.825-23.144c12.385-0.269,17.624-13.331,17.624-25.476
				v-73.69C2943.292,1872.569,2937.796,1863.041,2925.744,1863.041z M2929.867,1958.312c0,5.698,0.474,12.129-4.123,12.129h-4.952
				l-24.489,23.28v-16.005c0-3.139,2.985-7.275-0.154-7.275h-102.895c-5.642,0-17.777-6.486-17.777-12.129v-70.654
				c0-8.232,12.08-7.837,17.777-7.837h132.49c5.605,0,4.123-0.806,4.123,4.8V1958.312z"/>
			<path style="fill:#FFFFFF;" d="M2916.442,1899.96c0,1.854-1.502,3.356-3.356,3.356h-120.826c-1.854,0-3.356-1.503-3.356-3.356
				l0,0c0-1.854,1.503-3.356,3.356-3.356h120.826C2914.939,1896.603,2916.442,1898.106,2916.442,1899.96L2916.442,1899.96z"/>
			<path style="fill:#FFFFFF;" d="M2916.442,1920.097c0,1.854-1.502,3.356-3.356,3.356h-120.826c-1.854,0-3.356-1.503-3.356-3.356
				l0,0c0-1.854,1.503-3.356,3.356-3.356h120.826C2914.939,1916.741,2916.442,1918.244,2916.442,1920.097L2916.442,1920.097z"/>
			<path style="fill:#FFFFFF;" d="M2916.442,1950.304c0,1.854-1.502,3.356-3.356,3.356h-120.826c-1.854,0-3.356-1.503-3.356-3.356
				l0,0c0-1.854,1.503-3.356,3.356-3.356h120.826C2914.939,1946.948,2916.442,1948.45,2916.442,1950.304L2916.442,1950.304z"/>
		</g>
		<g>
			
				<linearGradient id="SVGID_00000170972697089662521030000013616413581339698574_" gradientUnits="userSpaceOnUse" x1="-1174.6283" y1="1565.5341" x2="-1034.3405" y2="1408.1382" gradientTransform="matrix(-1 0 0 1 1146.2692 0)">
				<stop  offset="0" style="stop-color:#F9B776"/>
				<stop  offset="1" style="stop-color:#F47960"/>
			</linearGradient>
			<path style="fill:url(#SVGID_00000170972697089662521030000013616413581339698574_);" d="M2141.158,1761.15
				c0.427-0.164,229.763-401.787,260.754-439.583c5.214-6.357,13.283-9.595,21.447-8.622l64.011,7.628l75.2,162.686l-125.281-72.962
				c12.396,85.736-148.544,213.15-203.74,259.642c-5.602,4.719-6.062,13.169-1.002,18.465l22.034,23.068
				c-36.176,36.67-77.922,60.216-125.038,71.107L2141.158,1761.15z"/>
			
				<linearGradient id="SVGID_00000042006801180356380040000014585426371164275854_" gradientUnits="userSpaceOnUse" x1="-1693.3986" y1="-1423.2456" x2="-1721.155" y2="-997.6469" gradientTransform="matrix(0.8974 -0.4412 0.4412 0.8974 4281.0454 2161.1482)">
				<stop  offset="0" style="stop-color:#2B3582"/>
				<stop  offset="1" style="stop-color:#150E42"/>
			</linearGradient>
			<path style="fill:url(#SVGID_00000042006801180356380040000014585426371164275854_);" d="M2241.836,1699.022
				c0,0,14.064,4.544,18.826,17.069c2.278,5.993-0.178,12.781-5.39,16.515c-23.157,16.591-99.545,70.156-134.795,80.647
				c-2.89,0.859-5.639-1.756-4.989-4.698c1.809-8.189,7.66-24.542,26.511-48.481l-1.691,3.42c-2.14,4.329,2.573,8.837,6.779,6.462
				C2170.665,1756.647,2218.688,1727.516,2241.836,1699.022z"/>
			
				<linearGradient id="SVGID_00000065788915201949992420000017562425538596776595_" gradientUnits="userSpaceOnUse" x1="11455.1602" y1="1476.1768" x2="12692.2549" y2="701.7361" gradientTransform="matrix(-1 0 0 1 13576.3242 0)">
				<stop  offset="0" style="stop-color:#F9B776"/>
				<stop  offset="1" style="stop-color:#F47960"/>
			</linearGradient>
			<path style="fill:url(#SVGID_00000065788915201949992420000017562425538596776595_);" d="M2230.487,1859.72
				c0.385-0.247,34.792-83.147,35.178-83.393c31.547-192.078,108.519-356.578,131.218-399.864
				c3.82-7.28,11.066-12.083,19.259-12.784l64.23-5.483l106.568,144.1l-137.454-46.098
				c29.491,81.453-102.334,238.801-146.979,295.502c-4.531,5.754-3.271,14.124,2.755,18.286l26.249,18.132
				c-28.009,43.232-64.125,74.74-108.061,94.939L2230.487,1859.72z"/>
			
				<linearGradient id="SVGID_00000019643383335386952940000009065732203449810581_" gradientUnits="userSpaceOnUse" x1="-765.3019" y1="-2440.6255" x2="-793.056" y2="-2015.0642" gradientTransform="matrix(0.7895 -0.6137 0.6137 0.7895 4298.6343 3191.1018)">
				<stop  offset="0" style="stop-color:#2B3582"/>
				<stop  offset="1" style="stop-color:#150E42"/>
			</linearGradient>
			<path style="fill:url(#SVGID_00000019643383335386952940000009065732203449810581_);" d="M2316.507,1778.505
				c0,0,14.692,1.601,21.89,12.905c3.444,5.408,2.413,12.552-1.935,17.264c-19.321,20.934-83.288,88.849-115.685,106.257
				c-2.656,1.427-5.876-0.577-5.837-3.591c0.114-8.386,2.535-25.585,16.152-52.843l-0.964,3.693
				c-1.219,4.673,4.31,8.133,7.948,4.957C2258.471,1849.34,2299.605,1811.094,2316.507,1778.505z"/>
			<g>
				
					<linearGradient id="SVGID_00000157301195234007436420000006924384279577375399_" gradientUnits="userSpaceOnUse" x1="-4541.4111" y1="1660.1758" x2="-4230.4595" y2="1216.8704" gradientTransform="matrix(-1 0 0 1 -1720.1108 0)">
					<stop  offset="0" style="stop-color:#CB236D"/>
					<stop  offset="1" style="stop-color:#4C246D"/>
				</linearGradient>
				<path style="fill:url(#SVGID_00000157301195234007436420000006924384279577375399_);" d="M2781.028,1327.848
					c0,0,58.105,86.424,62.874,125.847c4.767,39.422-16.067,53.056-76.884,58.083c-180.98,14.961-270.196-39.279-270.196-39.279
					c13.555-37.625,29.934-116.634-73.463-159.554c0,0,85.372,13.675,111.692,3.462
					C2561.371,1306.193,2781.028,1327.848,2781.028,1327.848z"/>
			</g>
			<g>
				
					<linearGradient id="SVGID_00000111889458443825534440000013762418181807692177_" gradientUnits="userSpaceOnUse" x1="-4169.814" y1="793.9385" x2="-4580.957" y2="1316.1381" gradientTransform="matrix(-1 0 0 1 -1720.1108 0)">
					<stop  offset="0" style="stop-color:#2B3582"/>
					<stop  offset="1" style="stop-color:#150E42"/>
				</linearGradient>
				<path style="fill:url(#SVGID_00000111889458443825534440000013762418181807692177_);" d="M2452.981,867.253
					c0.996,7.58,132.902,374.668,132.902,374.668l201.874,31.64c38.93,6.102,77.176-14.396,93.65-50.192h0.001
					c40.934-88.943,1.972-194.225-87-235.092l-29.799-13.687c-44.456-20.42-88.033-55.671-126.331-92.701
					c-32.131-31.069-74.69-49.052-119.329-51.283l0,0L2452.981,867.253z"/>
				<path style="fill:#FFFFFF;" d="M2846.384,1190.668c-0.329,0-0.657-0.144-0.878-0.423c-0.385-0.485-0.305-1.19,0.18-1.577
					c21.044-16.726,19.131-48.247,17.332-61.023c-3.576-25.402-13.636-49.646-29.091-70.118
					c-27.809-36.827-70.479-58.778-111.744-80.007l-8.54-4.402c-42.268-21.855-89.343-48.951-113.004-94.091
					c-0.289-0.551-0.077-1.226,0.472-1.514c0.552-0.298,1.227-0.079,1.514,0.472c23.36,44.563,70.085,71.442,112.047,93.14
					l8.536,4.398c41.49,21.344,84.392,43.415,112.508,80.653c15.685,20.773,25.893,45.379,29.523,71.154
					c1.854,13.16,3.794,45.648-18.158,63.094C2846.876,1190.59,2846.63,1190.668,2846.384,1190.668z"/>
				<path style="fill:#FFFFFF;" d="M2825.14,1151.022c-0.025,0-0.049,0-0.074,0c-0.618-0.039-1.086-0.574-1.047-1.193
					c1.695-26.621-2.106-49.686-11.298-68.555c-16.637-34.15-51.808-56.008-80.59-71.236c-5.802-3.071-11.67-6.067-17.547-9.069
					c-26.698-13.632-54.305-27.732-75.824-49.089c-0.441-0.436-0.443-1.147-0.007-1.586c0.436-0.443,1.147-0.443,1.586-0.007
					c21.272,21.111,48.72,35.13,75.266,48.686c5.887,3.006,11.765,6.008,17.575,9.079c29.084,15.388,64.638,37.506,81.557,72.239
					c9.366,19.223,13.241,42.668,11.521,69.682C2826.22,1150.567,2825.727,1151.022,2825.14,1151.022z"/>
				
					<linearGradient id="SVGID_00000142135240162924124400000004175834168418172600_" gradientUnits="userSpaceOnUse" x1="-4154.4814" y1="1063.4524" x2="-4215.8848" y2="1290.6454" gradientTransform="matrix(-1 0 0 1 -1720.1108 0)">
					<stop  offset="0" style="stop-color:#F9B776"/>
					<stop  offset="1" style="stop-color:#F47960"/>
				</linearGradient>
				<path style="fill:url(#SVGID_00000142135240162924124400000004175834168418172600_);" d="M2396.575,1149.962
					c0,0,68.997,82.631,138.475,15.526l26.844,62.251c0,0-101.459,78.562-178.418-45.046L2396.575,1149.962z"/>
				
					<linearGradient id="SVGID_00000126312893733772014820000001111476893515268518_" gradientUnits="userSpaceOnUse" x1="-4533.4053" y1="1235.2485" x2="-3979.9556" y2="1008.4653" gradientTransform="matrix(-1 0 0 1 -1720.1108 0)">
					<stop  offset="0" style="stop-color:#A737D5"/>
					<stop  offset="1" style="stop-color:#EF497A"/>
				</linearGradient>
				<path style="fill:url(#SVGID_00000126312893733772014820000001111476893515268518_);" d="M2623.888,1316.407
					c0,0-67.662-64.43-100.97-107.104c-18.004-23.068-23.658-53.437-15.331-81.489c15.206-51.231,42.23-104.293,44.695-112.551
					c3.778-12.658,79.646-12.131,79.646-12.131s71.433,11.105,71.999,132.132c0.135,28.807,8.139,57.084,23.161,81.665
					c17.243,28.218,34.02,70.577,53.941,110.92L2623.888,1316.407z"/>
				
					<linearGradient id="SVGID_00000113354003145743800270000011670288219129450369_" gradientUnits="userSpaceOnUse" x1="-4335.7383" y1="719.5959" x2="-4318.1318" y2="590.7901" gradientTransform="matrix(0.9974 -0.0717 0.0717 0.9974 6845.7319 105.0094)">
					<stop  offset="0" style="stop-color:#F9B776"/>
					<stop  offset="1" style="stop-color:#F47960"/>
				</linearGradient>
				<path style="fill:url(#SVGID_00000113354003145743800270000011670288219129450369_);" d="M2579.785,911.912l50.991,94.821
					c-3.366,20.698-55.499,21.282-63.552,8.922c-0.82-1.258-1.289-2.712-1.599-4.182l-30.503-63.356
					c-1.311-6.179,15.626-26.995,21.201-29.962l20.268-10.788C2584.396,903.212,2551.83,902.885,2579.785,911.912z"/>
				<g>
					
						<linearGradient id="SVGID_00000101804322482770073370000012872202201126488454_" gradientUnits="userSpaceOnUse" x1="-5483.5488" y1="1374.0245" x2="-5317.771" y2="1078.996" gradientTransform="matrix(0.5458 -0.8379 0.8379 0.5458 4426.7476 -4320.769)">
						<stop  offset="0" style="stop-color:#F9B776"/>
						<stop  offset="1" style="stop-color:#F47960"/>
					</linearGradient>
					<path style="fill:url(#SVGID_00000101804322482770073370000012872202201126488454_);" d="M2476.587,889.658
						c0,0-5.756,32.035,19.423,72.766c25.178,40.732,50.253,38.893,62.991,24.367c12.739-14.526,27.997-38.719,21.055-79.344
						C2573.114,866.822,2485.284,848.805,2476.587,889.658z"/>
					
						<linearGradient id="SVGID_00000160903003283108330360000004178576074896940438_" gradientUnits="userSpaceOnUse" x1="-4168.4639" y1="795.0017" x2="-4579.6079" y2="1317.2021" gradientTransform="matrix(-1 0 0 1 -1720.1108 0)">
						<stop  offset="0" style="stop-color:#2B3582"/>
						<stop  offset="1" style="stop-color:#150E42"/>
					</linearGradient>
					<path style="fill:url(#SVGID_00000160903003283108330360000004178576074896940438_);" d="M2549.574,911.862
						c0,0-40.772-53.552-72.073-6.868l0.528,16.127c0,0-40.705-1.904-36.291-39.42c4.414-37.518,37.646-63.148,83.717-50.33
						c46.07,12.819,72.99,27.417,78.192,59.403c5.204,31.986-20.914,26.76-20.914,26.76s-9.977-22.07-22.023-23.578
						c-12.047-1.507-7.693,15.951-7.693,15.951L2549.574,911.862z"/>
					
						<linearGradient id="SVGID_00000158737102177351858650000014405543877166245799_" gradientUnits="userSpaceOnUse" x1="-5448.2598" y1="1393.8489" x2="-5282.4844" y2="1098.8245" gradientTransform="matrix(0.5458 -0.8379 0.8379 0.5458 4426.7476 -4320.769)">
						<stop  offset="0" style="stop-color:#F9B776"/>
						<stop  offset="1" style="stop-color:#F47960"/>
					</linearGradient>
					<path style="fill:url(#SVGID_00000158737102177351858650000014405543877166245799_);" d="M2558.93,910.433
						c0,0-21.119-27.405-1.895-33.094c19.225-5.688,18.506,26.854,17.254,38.96L2558.93,910.433z"/>
				</g>
				
					<linearGradient id="SVGID_00000036224328125737171520000004122296985653063090_" gradientUnits="userSpaceOnUse" x1="-4273.2266" y1="1222.5057" x2="-4006.5735" y2="1222.5057" gradientTransform="matrix(-1 0 0 1 -1720.1108 0)">
					<stop  offset="0" style="stop-color:#F9B776"/>
					<stop  offset="1" style="stop-color:#F47960"/>
				</linearGradient>
				<path style="fill:url(#SVGID_00000036224328125737171520000004122296985653063090_);" d="M2716.282,1243.296
					c0,0-145.515-20.263-193.415-65.087c0,0-23.181-21.899-39.918-24.562c-9.015-1.434-19.185-2.392-26.651-2.97
					c-3.407-0.264-5,4.135-2.204,6.1c5.392,3.788,12.457,7.866,18.584,8.502c11.842,1.228-0.782,9.906,12.113,32.58
					c12.894,22.674,31.316,14.123,31.316,14.123s96.404,83.059,188.508,82.363
					C2704.616,1294.343,2727.335,1286.892,2716.282,1243.296z"/>
				<g>
					
						<linearGradient id="SVGID_00000104699728697388475270000002742814516156672187_" gradientUnits="userSpaceOnUse" x1="-1800.0344" y1="1545.3774" x2="-1844.5159" y2="1592.3915" gradientTransform="matrix(0.9865 -0.1635 0.2088 1.2596 3873.7834 -1140.5688)">
						<stop  offset="0" style="stop-color:#2B3582"/>
						<stop  offset="1" style="stop-color:#150E42"/>
					</linearGradient>
					<path style="fill:url(#SVGID_00000104699728697388475270000002742814516156672187_);" d="M2351.215,1093.092l50.287-6.626
						c5.996-0.994,12.185,2.519,15.89,9.019l33.079,73.118c6.228,10.925,1.798,25.418-8.279,27.089l-40.381,5.179
						c-3.863,0.641-7.834-1.798-10.015-6.15l-44.738-89.296C2344.472,1100.266,2346.634,1093.852,2351.215,1093.092z"/>
				</g>
				
					<linearGradient id="SVGID_00000137098754869245897640000017687595012586997160_" gradientUnits="userSpaceOnUse" x1="-4541.2373" y1="1216.1353" x2="-3987.7881" y2="989.3524" gradientTransform="matrix(-1 0 0 1 -1720.1108 0)">
					<stop  offset="0" style="stop-color:#A737D5"/>
					<stop  offset="1" style="stop-color:#EF497A"/>
				</linearGradient>
				<path style="fill:url(#SVGID_00000137098754869245897640000017687595012586997160_);" d="M2683.628,1044.778
					c0,0,137.04,202.98,20.988,249.565l-20.988-56.621c0,0,13.873-31.354-26.998-110.048c-5.387-10.373-7.97-21.999-7.496-33.678
					C2650.513,1059.964,2656.638,996.776,2683.628,1044.778z"/>
				<path style="opacity:0.43;fill:#FFFFFF;" d="M2683.635,1240.173c0.94,0,1.835-0.542,2.238-1.458
					c0.588-1.324,13.88-33.338-27.063-112.174c-0.626-1.207-2.106-1.674-3.313-1.048c-1.204,0.626-1.672,2.109-1.048,3.313
					c39.627,76.299,27.059,107.629,26.927,107.936c-0.53,1.243,0.036,2.686,1.276,3.226
					C2682.971,1240.105,2683.307,1240.173,2683.635,1240.173z"/>
				
					<linearGradient id="SVGID_00000045581115347370917980000000896447029699942797_" gradientUnits="userSpaceOnUse" x1="-4086.6323" y1="1087.4728" x2="-4118.9927" y2="1207.207" gradientTransform="matrix(-1 0 0 1 -1720.1108 0)">
					<stop  offset="0" style="stop-color:#F9B776"/>
					<stop  offset="1" style="stop-color:#F47960"/>
				</linearGradient>
				<path style="fill:url(#SVGID_00000045581115347370917980000000896447029699942797_);" d="M2385.523,1191.717
					c0,0-33.811-49.205-29.883-55.263c3.927-6.058,33.567-14.737,40.526-16.784
					C2403.125,1117.623,2416.224,1162.243,2385.523,1191.717z"/>
			</g>
		</g>
		<g>
			<g>
				
					<linearGradient id="SVGID_00000055669437936678921150000016221918891250348448_" gradientUnits="userSpaceOnUse" x1="2979.4299" y1="2671.7385" x2="2944.6816" y2="3001.8469">
					<stop  offset="0" style="stop-color:#F9B776"/>
					<stop  offset="1" style="stop-color:#F47960"/>
				</linearGradient>
				<path style="fill:url(#SVGID_00000055669437936678921150000016221918891250348448_);" d="M2908.987,2910.43
					c13.571,2.699,90.909,48.72,90.909-3.895c0-4.956,0-58.772,0-58.772S2905.087,2909.655,2908.987,2910.43z"/>
				
					<linearGradient id="SVGID_00000028321028748524505650000012042460450066515865_" gradientUnits="userSpaceOnUse" x1="2969.3088" y1="2372.0825" x2="2880.8582" y2="2901.2036">
					<stop  offset="0" style="stop-color:#F9B776"/>
					<stop  offset="1" style="stop-color:#F47960"/>
				</linearGradient>
				<path style="fill:url(#SVGID_00000028321028748524505650000012042460450066515865_);" d="M2957.388,2811.65
					c0,0-33.989-57.356-38.238-113.651c-4.248-56.294,2.656-80.933-3.718-97.292c-6.373-16.359-37.352-78.491-38.768-59.817
					c-1.416,18.675,9.913,38.147,9.913,38.147s-19.652,15.634-16.286,33.635c3.366,18.001,10.267,19.827,10.267,19.827
					s1.062,38.946,2.833,38.946c1.77,0-31.157,195.437,5.665,199.686C2925.877,2875.379,2955.617,2901.58,2957.388,2811.65z"/>
				
					<linearGradient id="SVGID_00000041988280145977305860000011871380689209229217_" gradientUnits="userSpaceOnUse" x1="2754.6052" y1="2568.7676" x2="2785.1868" y2="2638.3474" gradientTransform="matrix(0.9963 -0.0857 0.0857 0.9963 -113.9226 236.535)">
					<stop  offset="0" style="stop-color:#F9B776"/>
					<stop  offset="1" style="stop-color:#F47960"/>
				</linearGradient>
				<path style="fill:url(#SVGID_00000041988280145977305860000011871380689209229217_);" d="M2860.257,2598.827
					c-0.343-2.588-24.148-54.368-19.885-60.255c4.263-5.888,8.566-11.14,15.249,6.317c6.682,17.458,14.654,64.95,12.086,65.234
					C2865.14,2610.406,2861.487,2608.107,2860.257,2598.827z"/>
				
					<linearGradient id="SVGID_00000011010191004966231620000006202709190698588822_" gradientUnits="userSpaceOnUse" x1="2630.2017" y1="3137.5222" x2="2557.3459" y2="3229.1248">
					<stop  offset="0" style="stop-color:#2B3582"/>
					<stop  offset="1" style="stop-color:#150E42"/>
				</linearGradient>
				<path style="fill:url(#SVGID_00000011010191004966231620000006202709190698588822_);" d="M2637.514,3162.957
					c0,0-17.971-14.914-41.865-12.74c-16.659,2.918-36.201,17.651-48.8,28.583c-2.197,1.906-2.936,4.94-1.855,7.601
					c1.081,2.661,3.753,4.387,6.698,4.326c31.241-0.647,92.359-2.503,92.359-7.109
					C2644.052,3177.431,2637.514,3162.957,2637.514,3162.957z"/>
				
					<linearGradient id="SVGID_00000094587914488634518370000008428857422398800294_" gradientUnits="userSpaceOnUse" x1="2623.0347" y1="3137.011" x2="2640.2546" y2="3176.1899">
					<stop  offset="0" style="stop-color:#F9B776"/>
					<stop  offset="1" style="stop-color:#F47960"/>
				</linearGradient>
				<path style="fill:url(#SVGID_00000094587914488634518370000008428857422398800294_);" d="M2649.894,3136.669l-14.339,27.085
					c0,0-32.396,2.655-31.334-10.091c1.062-12.746,9.028-28.147,9.028-28.147L2649.894,3136.669z"/>
				
					<linearGradient id="SVGID_00000183928012675438112260000001382185164281910972_" gradientUnits="userSpaceOnUse" x1="3147.8896" y1="2543.6021" x2="2964.6716" y2="2834.2236">
					<stop  offset="0" style="stop-color:#53D8FF"/>
					<stop  offset="1" style="stop-color:#3840F7"/>
				</linearGradient>
				<path style="fill:url(#SVGID_00000183928012675438112260000001382185164281910972_);" d="M3016.038,3155.111
					c-22.466-122.656-38.829-201.423-38.829-201.423s-248.982-160.626-274.474-121.326c-25.491,39.3-98.541,307.494-98.541,307.494
					l48.707,13.277c0,0,93.116-126.126,101.614-233.804c23.973,78.534,46.314,266.207,230.755,271.591
					c9.157,0.267,17.942-3.619,23.912-10.567C3015.153,3173.405,3017.688,3164.122,3016.038,3155.111z"/>
				
					<linearGradient id="SVGID_00000159457422428896936920000011010891937895020928_" gradientUnits="userSpaceOnUse" x1="2446.4751" y1="3143.5503" x2="2466.4333" y2="3188.96">
					<stop  offset="0" style="stop-color:#F9B776"/>
					<stop  offset="1" style="stop-color:#F47960"/>
				</linearGradient>
				<polygon style="fill:url(#SVGID_00000159457422428896936920000011010891937895020928_);" points="2477.824,3152.071 
					2448.084,3180.218 2424.716,3156.851 2455.519,3121.268 				"/>
				
					<linearGradient id="SVGID_00000145034505337844383570000016361287882744597928_" gradientUnits="userSpaceOnUse" x1="3228.0454" y1="3127.0354" x2="3278.4956" y2="3241.8208" gradientTransform="matrix(-0.9226 0.3857 0.3857 0.9226 4851.5386 -1506.0273)">
					<stop  offset="0" style="stop-color:#F9B776"/>
					<stop  offset="1" style="stop-color:#F47960"/>
				</linearGradient>
				<path style="fill:url(#SVGID_00000145034505337844383570000016361287882744597928_);" d="M3081.542,2581.699l58.21,74.852
					c2.667,3.429,3.122,8.16,1.061,11.703c-7.541,12.959-29.43,41.613-75.724,42.015c-5.294,0.046-10.345-3.326-12.957-8.472
					l-36.182-71.282L3081.542,2581.699z"/>
				<g>
					
						<linearGradient id="SVGID_00000082363013477209318310000004488650843930239138_" gradientUnits="userSpaceOnUse" x1="1973.7585" y1="2023.1569" x2="2046.8562" y2="2189.4705" gradientTransform="matrix(-0.9514 -0.3081 -0.3081 0.9514 5534.4683 1195.636)">
						<stop  offset="0" style="stop-color:#F9B776"/>
						<stop  offset="1" style="stop-color:#F47960"/>
					</linearGradient>
					<path style="fill:url(#SVGID_00000082363013477209318310000004488650843930239138_);" d="M2942.885,2484.193
						c0,0-14.839,85.441,8.402,120.721c23.24,35.28,90.496,36.166,131.087-18.722l-7.041-118.607L2942.885,2484.193z"/>
					
						<linearGradient id="SVGID_00000091696962228578107680000014873990235650978990_" gradientUnits="userSpaceOnUse" x1="1967.7463" y1="1812.8649" x2="2015.2625" y2="2083.8826" gradientTransform="matrix(-0.9514 -0.3081 -0.3081 0.9514 5534.4683 1195.636)">
						<stop  offset="0" style="stop-color:#2B3582"/>
						<stop  offset="1" style="stop-color:#150E42"/>
					</linearGradient>
					<path style="fill:url(#SVGID_00000091696962228578107680000014873990235650978990_);" d="M3048.304,2540.983
						c-2.635-0.004-4.639-2.343-4.208-4.943c1.31-7.906,3.315-23.744,0.883-35.761c0,0,6.465-9.747-28.854-3.299
						c-35.319,6.447-88.196,15.596-110.205-7.178c-21.458-22.205-25.221-100.193,39.14-65.125c2.449,1.335,5.519,0.034,6.181-2.676
						c2.856-11.692,12.498-37.597,41.834-37.413c27.452,0.172,37.441,15.825,40.861,24.428c1.006,2.531,4.086,3.485,6.327,1.938
						c10.612-7.321,37.578-21.485,63.138,1.311c21.053,18.777,19.973,35.142,16.515,44.437c-1.12,3.011,1.309,6.085,4.5,5.705
						c8.643-1.028,21.324,1.09,28.21,19.364c9.52,25.263-19.013,35.256-27.36,37.595c-1.367,0.383-2.468,1.396-2.914,2.744
						c-3.446,10.419-18.19,56.991-49.333,75.286c-2.696,1.584-7.768-1.812-8.031-4.928l-4.012-47.561
						c-0.186-2.209-2.032-3.908-4.249-3.911L3048.304,2540.983z"/>
					
						<linearGradient id="SVGID_00000174598684736352274410000000914687746866242472_" gradientUnits="userSpaceOnUse" x1="1933.5057" y1="2038.4022" x2="1956.9203" y2="2091.6758" gradientTransform="matrix(-0.9514 -0.3081 -0.3081 0.9514 5534.4683 1195.636)">
						<stop  offset="0" style="stop-color:#F9B776"/>
						<stop  offset="1" style="stop-color:#F47960"/>
					</linearGradient>
					<path style="fill:url(#SVGID_00000174598684736352274410000000914687746866242472_);" d="M3043.365,2546.217
						c0,0,24.887-40.231,36.592-20.761c11.705,19.47-18.961,44.048-39.563,43.953L3043.365,2546.217z"/>
				</g>
				
					<linearGradient id="SVGID_00000133518997814786389190000002278056415294363062_" gradientUnits="userSpaceOnUse" x1="2900.2122" y1="2751.3188" x2="2966.55" y2="3188.8315">
					<stop  offset="0" style="stop-color:#F9B776"/>
					<stop  offset="1" style="stop-color:#F47960"/>
				</linearGradient>
				<path style="fill:url(#SVGID_00000133518997814786389190000002278056415294363062_);" d="M2986.939,2787.221
					c0,0-113.462,47.797-134.705,23.367c-21.243-24.429-9.559-161.423-9.559-161.423l-47.797-12.77
					c0,0-58.773,241.817,41.07,277.931c72.482,26.217,210.66-59.127,210.66-59.127L2986.939,2787.221z"/>
				
					<linearGradient id="SVGID_00000178205025242375435460000008955919200662159780_" gradientUnits="userSpaceOnUse" x1="2987.689" y1="2683.375" x2="3382.5544" y2="3293.0461">
					<stop  offset="0" style="stop-color:#FDF53F"/>
					<stop  offset="1" style="stop-color:#D93C65"/>
				</linearGradient>
				<path style="fill:url(#SVGID_00000178205025242375435460000008955919200662159780_);" d="M3093.631,2621.878
					c-18.294,4.022-38.345,21.493-54.031,38.255c-17.912,19.141-29.909,43.134-34.378,68.965c-0.146,0.841-0.291,1.684-0.436,2.529
					c-39.487,43.278-74.266,71.297-97.663,81.655c41.07,58.332,63.292,80.491,63.292,80.491s4.736-1.019,12.679-3.07
					c-7.719,69.604-11.898,123.497-11.898,123.497s80.224,79.629,177.38,102.288c88.484-65.146,102.018-251.508,102.018-251.508
					C3257.522,2643.94,3155.433,2608.291,3093.631,2621.878z"/>
				
					<linearGradient id="SVGID_00000090274975639719481920000015508358267485811611_" gradientUnits="userSpaceOnUse" x1="2737.1577" y1="2751.2334" x2="2828.7668" y2="3329.3179">
					<stop  offset="0" style="stop-color:#53D8FF"/>
					<stop  offset="1" style="stop-color:#3840F7"/>
				</linearGradient>
				<path style="fill:url(#SVGID_00000090274975639719481920000015508358267485811611_);" d="M3148.576,3116.489
					c0,0-39.831,118.43-236.425,52.045c-95.323-32.188-228.8-218.804-228.8-218.804s-32.927,90.283-204.996,211.369l-38.237-34.343
					c0,0,174.193-300.236,263.414-269.08C2792.753,2888.833,3175.837,3039.659,3148.576,3116.489z"/>
				
					<linearGradient id="SVGID_00000150092333595353302830000004924417616177432228_" gradientUnits="userSpaceOnUse" x1="2390.0745" y1="3142.4939" x2="2414.873" y2="3229.4958">
					<stop  offset="0" style="stop-color:#2B3582"/>
					<stop  offset="1" style="stop-color:#150E42"/>
				</linearGradient>
				<path style="fill:url(#SVGID_00000150092333595353302830000004924417616177432228_);" d="M2462.586,3166.492
					c-7.272,0.082-37.87-13.359-37.87-13.359l-28.501,7.612c-24.841-3.822-46.176,4.637-60.553,13.234
					c-3.14,1.877-4.648,5.617-3.702,9.152c0.946,3.535,4.122,6.014,7.78,6.075c28.131,0.466,74.325,0.936,97.723-0.465
					C2472.514,3186.645,2477.824,3187.653,2462.586,3166.492z"/>
				
					<linearGradient id="SVGID_00000142875666702634161830000001719357806886685313_" gradientUnits="userSpaceOnUse" x1="3009.5508" y1="2002.2708" x2="3107.478" y2="2953.1069">
					<stop  offset="0" style="stop-color:#FDF53F"/>
					<stop  offset="1" style="stop-color:#D93C65"/>
				</linearGradient>
				<path style="fill:url(#SVGID_00000142875666702634161830000001719357806886685313_);" d="M3022.317,2880.303
					c-0.564,0-1.078-0.383-1.219-0.957c-0.166-0.673,0.245-1.354,0.92-1.52c0.301-0.075,30.446-7.619,62.844-26.14
					c29.801-17.038,67.673-47.125,78.86-93.712c0.162-0.675,0.843-1.091,1.515-0.929c0.675,0.163,1.09,0.841,0.929,1.515
					c-11.402,47.481-49.859,78.053-80.112,95.339c-32.698,18.682-63.132,26.292-63.436,26.366
					C3022.517,2880.292,3022.416,2880.303,3022.317,2880.303z"/>
				<g>
					<g>
						
							<linearGradient id="SVGID_00000009568253936041174370000000496783959573783224_" gradientUnits="userSpaceOnUse" x1="3083.7437" y1="2463.1235" x2="2877.7942" y2="2753.6963" gradientTransform="matrix(-0.9162 0.4006 0.4006 0.9162 4583.5337 -959.3197)">
							<stop  offset="0" style="stop-color:#2B3582"/>
							<stop  offset="1" style="stop-color:#150E42"/>
						</linearGradient>
						<path style="fill:url(#SVGID_00000009568253936041174370000000496783959573783224_);" d="M2769.623,2525.7
							c-0.821-2.104-0.664-4.462,0.428-6.439c1.092-1.975,3.007-3.364,5.225-3.786l55.371-10.565c2.15-0.41,4.265,0.86,4.914,2.95
							l42.591,137.303c0.184,0.592,0.124,1.233-0.168,1.78c-0.291,0.547-0.789,0.955-1.383,1.134l-46.289,13.894
							c-3.792,1.138-7.822-0.826-9.261-4.514L2769.623,2525.7z"/>
						
							<linearGradient id="SVGID_00000117639270811708999090000010826556169452220858_" gradientUnits="userSpaceOnUse" x1="3069.5669" y1="2477.3828" x2="2903.6567" y2="2711.4644" gradientTransform="matrix(-0.9162 0.4006 0.4006 0.9162 4583.5337 -959.3197)">
							<stop  offset="0" style="stop-color:#53D8FF"/>
							<stop  offset="1" style="stop-color:#3840F7"/>
						</linearGradient>
						<path style="fill:url(#SVGID_00000117639270811708999090000010826556169452220858_);" d="M2787.088,2527.059
							c-0.448-1.202-0.336-2.54,0.305-3.651c0.642-1.111,1.745-1.877,3.009-2.091l36.757-6.204c2.125-0.359,4.188,0.911,4.825,2.97
							l36.168,116.969c0.19,0.614,0.117,1.278-0.2,1.836c-0.317,0.558-0.852,0.959-1.476,1.11l-32.934,7.922
							c-1.143,0.274-2.311-0.346-2.72-1.448L2787.088,2527.059z"/>
						
							<linearGradient id="SVGID_00000090998999326012330690000016462048114410359980_" gradientUnits="userSpaceOnUse" x1="2781.7234" y1="4412.0972" x2="2767.6292" y2="4431.9824" gradientTransform="matrix(-0.9785 0.2063 0.1084 0.5141 5051.7461 -330.1158)">
							<stop  offset="0" style="stop-color:#8D55D1"/>
							<stop  offset="0.9964" style="stop-color:#1C2873"/>
						</linearGradient>
						<path style="fill:url(#SVGID_00000090998999326012330690000016462048114410359980_);" d="M2804.816,2515.734
							c0.091,0.431,0.829,0.64,1.648,0.467l12.084-2.548c0.819-0.173,1.41-0.662,1.319-1.092l-0.088-0.418
							c-0.091-0.43-0.829-0.639-1.648-0.467l-12.084,2.549c-0.819,0.172-1.41,0.661-1.319,1.092L2804.816,2515.734z"/>
					</g>
				</g>
				
					<linearGradient id="SVGID_00000057129905530315159140000015496907039957447358_" gradientUnits="userSpaceOnUse" x1="2823.2576" y1="2762.9871" x2="2889.5952" y2="3200.498">
					<stop  offset="0" style="stop-color:#F9B776"/>
					<stop  offset="1" style="stop-color:#F47960"/>
				</linearGradient>
				<path style="fill:url(#SVGID_00000057129905530315159140000015496907039957447358_);" d="M2794.262,2639.031
					c-0.712-6.088-21.159-44.857-13.193-59.727c7.966-14.87,11.152-40.362,18.853-33.193c7.701,7.169-1.859,32.13,1.593,39.565
					c3.452,7.435,16.711,26.327,18.446,41.045c1.735,14.719,11.56,35.696-9.152,38.617
					C2790.098,2668.259,2794.262,2639.031,2794.262,2639.031z"/>
				
					<linearGradient id="SVGID_00000172408355667065089210000000013136928236114337_" gradientUnits="userSpaceOnUse" x1="2986.5591" y1="2004.64" x2="3084.4861" y2="2955.4744">
					<stop  offset="0" style="stop-color:#FDF53F"/>
					<stop  offset="1" style="stop-color:#D93C65"/>
				</linearGradient>
				<path style="fill:url(#SVGID_00000172408355667065089210000000013136928236114337_);" d="M3013.149,2726.872
					c-0.245,0-0.493-0.071-0.709-0.22c-0.573-0.393-0.718-1.174-0.325-1.746c2.344-3.418,57.768-83.529,89.685-70.018
					c0.639,0.271,0.938,1.009,0.667,1.648c-0.271,0.637-1.005,0.933-1.648,0.666c-30.039-12.747-86.071,68.303-86.633,69.124
					C3013.943,2726.681,3013.549,2726.872,3013.149,2726.872z"/>
				
					<linearGradient id="SVGID_00000000219403013192892350000007266427866955481242_" gradientUnits="userSpaceOnUse" x1="2882.3125" y1="2619.2603" x2="2903.0574" y2="2619.2603">
					<stop  offset="0" style="stop-color:#F9B776"/>
					<stop  offset="1" style="stop-color:#F47960"/>
				</linearGradient>
				<path style="fill:url(#SVGID_00000000219403013192892350000007266427866955481242_);" d="M2888.614,2651.99
					c-0.39,0-0.775-0.181-1.02-0.522c-9.696-13.442-3.576-28.774-0.962-35.32c0.324-0.813,0.686-1.719,0.806-2.144
					c-1.185-2.655-5.814-16.251-4.403-24.728c0.327-1.955,1.341-2.553,2.134-2.709c4.361-0.851,13.839,13.544,17.7,19.78
					c0.366,0.59,0.183,1.365-0.407,1.729c-0.591,0.369-1.364,0.183-1.729-0.407c-6.294-10.166-13.133-18.637-15.032-18.637
					c-0.008,0-0.014,0-0.021,0c0.01,0.032-0.092,0.213-0.165,0.657c-1.352,8.113,3.576,22.172,4.278,23.424
					c0.445,0.778,0.125,1.582-0.827,3.966c-2.46,6.164-8.222,20.597,0.667,32.92c0.406,0.563,0.279,1.347-0.284,1.753
					C2889.126,2651.913,2888.868,2651.99,2888.614,2651.99z M2887.609,2614.355l0.001,0.002L2887.609,2614.355z"/>
			</g>
			<path style="fill:#FFFFFF;" d="M2913.647,2484.796c-0.765,0-1.511-0.396-1.926-1.104c-9.846-16.85-12.948-31.177-9.223-42.586
				c3.659-11.209,12.617-15.221,12.996-15.385c1.131-0.498,2.442,0.026,2.932,1.154c0.49,1.124-0.021,2.432-1.144,2.927l0,0
				c-0.308,0.138-7.583,3.471-10.58,12.786c-3.261,10.131-0.277,23.206,8.868,38.856c0.621,1.062,0.262,2.425-0.8,3.048
				C2914.416,2484.698,2914.029,2484.796,2913.647,2484.796z"/>
		</g>
	</g>
</g>
</svg>
