<?xml version="1.0" encoding="utf-8"?>
<!-- Generator: Adobe Illustrator 27.5.0, SVG Export Plug-In . SVG Version: 6.00 Build 0)  -->
<svg version="1.1" xmlns="http://www.w3.org/2000/svg" xmlns:xlink="http://www.w3.org/1999/xlink" x="0px" y="0px"
	 viewBox="0 0 3710 3710" style="enable-background:new 0 0 3710 3710;" xml:space="preserve">
<g id="Background">
	<g>
		<g>
			<rect style="fill:#FFFFFF;" width="3710" height="3710"/>
		</g>
	</g>
</g>
<g id="Illustration">
	<g>
		<linearGradient id="SVGID_1_" gradientUnits="userSpaceOnUse" x1="3389.2336" y1="3187.5359" x2="1384.2034" y2="1433.1356">
			<stop  offset="0" style="stop-color:#B37CFF"/>
			<stop  offset="1" style="stop-color:#F895E7"/>
		</linearGradient>
		<path style="opacity:0.3;fill:url(#SVGID_1_);" d="M3048.483,2276.397c-259.131,610.148-949.395,951.958-1547.993,859.756
			c-97.404-15.004-364.44-59.695-600.863-270.536c-455.131-405.884-552.464-1209.587-185.324-1775.976
			c267.214-412.232,746.221-645.912,1201.373-634.223c98.04,2.518,473.768,18.035,803.968,290.311
			c48.5,39.992,155.471,135.024,251.878,285.786C3197.903,1385.533,3217.361,1878.756,3048.483,2276.397z"/>
		<g>
			
				<linearGradient id="SVGID_00000158732744604173737740000007028315994985232043_" gradientUnits="userSpaceOnUse" x1="1712.2086" y1="1772.6587" x2="1234.7959" y2="682.4465">
				<stop  offset="0" style="stop-color:#A737D5"/>
				<stop  offset="1" style="stop-color:#EF497A"/>
			</linearGradient>
			<path style="fill:url(#SVGID_00000158732744604173737740000007028315994985232043_);" d="M2928.079,1932.451
				c-26.243,597.799-570.609,1059.448-1215.875,1031.121c-645.266-28.327-1147.083-535.903-1120.839-1133.703
				S1161.974,770.421,1807.24,798.748C2452.506,827.075,2954.323,1334.651,2928.079,1932.451z"/>
			
				<linearGradient id="SVGID_00000060728746590476097750000004675503317697371520_" gradientUnits="userSpaceOnUse" x1="778.7461" y1="1802.9901" x2="2614.1084" y2="1802.9901">
				<stop  offset="0" style="stop-color:#B37CFF"/>
				<stop  offset="1" style="stop-color:#F895E7"/>
			</linearGradient>
			
				<ellipse style="opacity:0.26;fill:url(#SVGID_00000060728746590476097750000004675503317697371520_);" cx="1696.427" cy="1802.99" rx="917.681" ry="866.916"/>
			<g style="opacity:0.68;">
				<path style="fill:#FFFFFF;" d="M2058.486,1886.393c-0.281,191.092-13.386,382.573-47.061,570.958
					c-8.526,47.057-18.409,93.89-30.185,140.277c-11.812,46.369-25.45,92.336-42.147,137.278
					c-16.837,44.825-36.379,89.006-62.879,129.385c-13.354,20.042-28.5,39.246-47.193,55.043
					c-9.343,7.848-19.604,14.809-30.891,19.908c-11.263,5.066-23.573,8.273-36.066,8.496c-12.477,0.365-24.972-2.077-36.458-6.703
					c-11.53-4.581-22.04-11.228-31.609-18.817c-19.139-15.306-34.619-34.298-48.211-54.182
					c-26.97-40.091-46.777-84.182-63.791-128.937c-16.909-44.865-30.68-90.795-42.595-137.136
					c-11.894-46.356-21.877-93.168-30.473-140.21c-17.156-94.105-28.856-189.115-36.752-284.386
					c-7.839-95.287-11.768-190.878-12.251-286.483c-0.235-47.797,1.07-95.585,2.768-143.344c1.79-47.758,4.42-95.486,7.936-143.148
					c7.07-95.314,17.628-190.415,33.326-284.736c7.876-47.149,17.06-94.099,28.107-140.634
					c11.075-46.519,23.945-92.668,39.91-137.817c8.024-22.554,16.797-44.866,26.802-66.655c9.99-21.783,21.17-43.091,34.31-63.237
					c13.17-20.057,28.309-39.202,47.161-54.527c9.424-7.596,19.808-14.205,31.184-18.682c11.33-4.535,23.624-6.832,35.853-6.367
					c12.236,0.348,24.299,3.399,35.429,8.301c11.145,4.925,21.386,11.623,30.788,19.215c18.805,15.281,34.369,33.965,48.177,53.585
					c27.451,39.513,48.147,83.09,66.073,127.428c17.795,44.46,32.489,90.071,45.287,136.153
					c12.753,46.104,23.552,92.722,32.897,139.614C2042.912,1503.764,2057.934,1695.268,2058.486,1886.393z M2044.342,1886.393
					c0.175-95.216-3.444-190.456-11.357-285.342c-7.801-94.882-19.62-189.491-37.227-283.053
					c-8.792-46.775-19.032-93.284-31.216-139.278c-12.227-45.971-26.341-91.473-43.524-135.798
					c-17.306-44.199-37.376-87.624-64.008-126.856c-13.387-19.478-28.488-37.977-46.609-53.028
					c-9.057-7.48-18.89-14.053-29.531-18.894c-10.629-4.782-22.079-7.917-33.723-8.223c-11.636-0.369-23.257,1.972-34.021,6.402
					c-10.802,4.386-20.718,10.838-29.759,18.289c-18.087,15.027-32.742,33.928-45.479,53.807
					c-12.714,19.964-23.536,41.138-33.189,62.81c-9.669,21.677-18.129,43.9-25.849,66.373
					c-15.357,44.99-27.656,91.017-38.167,137.417c-10.484,46.418-19.117,93.258-26.447,140.294
					c-14.606,94.095-24.091,188.961-30.096,284.002c-6.065,95.053-8.16,190.322-7.988,285.549
					c-0.252,95.211,2.929,190.449,10.006,285.403c7.133,94.938,18.058,189.637,34.408,283.405
					c8.193,46.874,17.764,93.509,29.229,139.664c11.484,46.138,24.811,91.843,41.214,136.401
					c16.492,44.439,35.777,88.16,61.841,127.539c13.117,19.525,28.042,38.043,46.13,52.725c9.039,7.284,18.875,13.588,29.509,17.903
					c10.601,4.327,21.976,6.732,33.372,6.347c11.393-0.293,22.619-3.302,33.04-8.083c10.437-4.814,20.064-11.433,28.906-18.982
					c17.696-15.188,32.303-33.939,45.189-53.632c25.607-39.69,44.615-83.509,60.922-128.022
					c16.182-44.64,29.361-90.383,40.729-136.549c11.336-46.186,20.792-92.842,28.904-139.729
					c16.24-93.787,27.03-188.497,34.203-283.433C2041.023,2076.876,2044.379,1981.628,2044.342,1886.393z"/>
				<path style="fill:#FFFFFF;" d="M2540.55,1886.393c-0.661,123.058-16.477,246.169-49.419,364.84
					c-33.517,118.398-84.043,232.299-152.64,334.561c-34.302,51.075-73.163,99.151-116.585,142.769
					c-43.404,43.605-91.406,82.738-143.513,115.533c-52.154,32.669-108.484,58.821-167.45,76.563
					c-58.931,17.785-120.452,27.063-182.029,27.124c-61.576-0.006-123.114-9.227-182.077-26.964
					c-58.997-17.694-115.373-43.803-167.581-76.44c-52.16-32.761-100.234-71.859-143.708-115.447
					c-43.495-43.599-82.432-91.665-116.812-142.74c-68.734-102.275-119.367-216.226-153.041-334.682
					c-16.575-59.337-28.893-119.845-37.053-180.893c-8.117-61.058-12.195-122.63-12.475-184.225
					c0.318-61.596,4.435-123.163,12.589-184.211c8.199-61.037,20.563-121.528,37.178-180.842
					c33.758-118.408,84.469-232.282,153.248-334.451c34.394-51.028,73.337-99.041,116.827-142.582
					c43.475-43.521,91.514-82.582,143.665-115.24c52.192-32.552,108.555-58.468,167.449-76.155
					c58.857-17.76,120.296-27.024,181.791-27.084c61.495,0.112,122.918,9.427,181.747,27.233
					c58.865,17.734,115.179,43.702,167.316,76.289c52.095,32.695,100.065,71.788,143.468,115.329
					c43.417,43.56,82.283,91.582,116.6,142.611c68.64,102.155,119.247,215.979,152.846,334.33
					C2523.906,1640.244,2539.806,1763.335,2540.55,1886.393z M2524.336,1886.393c-0.178-121.661-15.333-243.452-47.433-360.893
					c-32.278-117.259-80.88-230.464-147.791-332.269c-33.437-50.85-71.413-98.78-113.948-142.349
					c-42.551-43.501-89.552-82.858-140.954-115.57c-51.465-32.528-107.041-58.711-165.316-76.421
					c-58.245-17.722-119.057-27.039-179.981-27.241c-60.923,0.254-121.719,9.622-179.936,27.389
					c-58.245,17.757-113.772,43.991-165.182,76.554c-51.346,32.749-98.277,72.138-140.757,115.658
					c-42.462,43.588-80.362,91.528-113.722,142.379c-66.771,101.792-115.268,214.945-147.388,332.147
					c-16.002,58.668-27.587,118.49-35.438,178.756c-7.869,60.275-11.752,121.057-11.888,181.859
					c0.174,60.801,4.095,121.578,12.002,181.843c7.89,60.256,19.522,120.061,35.563,178.704
					c32.203,117.154,80.78,230.231,147.596,331.917c33.372,50.804,71.278,98.69,113.736,142.22
					c42.48,43.453,89.376,82.806,140.714,115.451c51.395,32.48,106.909,58.52,165.051,76.27
					c58.11,17.792,118.807,27.201,179.649,27.51c60.843-0.253,121.556-9.606,179.698-27.349
					c58.174-17.702,113.733-43.7,165.182-76.147c51.391-32.613,98.358-71.93,140.91-115.365
					c42.53-43.51,80.512-91.388,113.962-142.191c66.955-101.699,115.638-214.826,147.997-332.038
					C2508.836,2129.823,2524.075,2008.053,2524.336,1886.393z"/>
				<path style="fill:#FFFFFF;" d="M781.8,1466.398l243.745-1.969l243.745-1.116l487.489-0.9l487.489,0.991l243.745,1.219
					l243.744,2.125c0.396,0.004,0.713,0.327,0.709,0.722c-0.003,0.391-0.32,0.706-0.709,0.709l-243.744,2.126l-243.745,1.219
					l-487.489,0.991l-487.489-0.9l-243.745-1.116L781.8,1468.53c-0.589-0.005-1.062-0.486-1.058-1.075
					C780.748,1466.873,781.22,1466.403,781.8,1466.398z"/>
				<path style="fill:#FFFFFF;" d="M1064.573,1058.147c57.683-0.914,115.368-1.306,173.051-1.969l173.051-1.116
					c57.684-0.475,115.368-0.424,173.052-0.571l173.051-0.329l346.103,0.991l173.052,1.219
					c57.684,0.723,115.368,1.146,173.052,2.126c0.395,0.007,0.71,0.333,0.703,0.728c-0.006,0.386-0.32,0.697-0.703,0.703
					c-57.684,0.979-115.368,1.402-173.052,2.126l-173.052,1.219l-346.103,0.991l-173.051-0.329
					c-57.684-0.147-115.368-0.095-173.052-0.571l-173.051-1.116c-57.683-0.663-115.368-1.055-173.051-1.969
					c-0.589-0.009-1.058-0.494-1.049-1.083C1063.533,1058.619,1064,1058.156,1064.573,1058.147z"/>
				<path style="fill:#FFFFFF;" d="M697.096,1874.649l264.921-1.963l264.921-1.122l529.841-0.901l529.841,0.991l264.921,1.22
					l264.92,2.125c0.396,0.003,0.713,0.326,0.71,0.721c-0.003,0.392-0.32,0.707-0.71,0.71l-264.92,2.124l-264.921,1.22
					l-529.841,0.991l-529.841-0.9l-264.921-1.122l-264.921-1.962c-0.589-0.004-1.062-0.485-1.058-1.074
					C696.042,1875.124,696.515,1874.654,697.096,1874.649z"/>
				<path style="fill:#FFFFFF;" d="M781.8,2282.9l243.745-1.969l243.745-1.116l487.489-0.901l487.489,0.991l243.745,1.218
					l243.744,2.126c0.396,0.004,0.713,0.327,0.709,0.722c-0.003,0.391-0.32,0.706-0.709,0.709l-243.744,2.126l-243.745,1.219
					l-487.489,0.991l-487.489-0.9l-243.745-1.116l-243.745-1.969c-0.589-0.004-1.062-0.486-1.058-1.074
					C780.748,2283.375,781.22,2282.905,781.8,2282.9z"/>
				<path style="fill:#FFFFFF;" d="M2483.861,2695.955h-1384.41c-2.066,0-3.737-1.673-3.737-3.737c0-2.063,1.671-3.737,3.737-3.737
					h1384.41c2.065,0,3.737,1.673,3.737,3.737C2487.598,2694.282,2485.927,2695.955,2483.861,2695.955z"/>
			</g>
		</g>
		<g>
			
				<linearGradient id="SVGID_00000024702622822925436660000000950866897104877746_" gradientUnits="userSpaceOnUse" x1="2392.7974" y1="429.3486" x2="1622.7607" y2="1948.4944">
				<stop  offset="0" style="stop-color:#FDF53F"/>
				<stop  offset="0.6645" style="stop-color:#E57A58"/>
				<stop  offset="1" style="stop-color:#D93C65"/>
			</linearGradient>
			<path style="fill:url(#SVGID_00000024702622822925436660000000950866897104877746_);" d="M2308.702,1006.766h-253.048
				c-19.353,0-35.041-15.689-35.041-35.041V717.998c0-18.256,14.017-33.454,32.214-34.927l269.607-21.821
				c21.239-1.719,39.083,15.759,37.805,37.029l-16.559,275.547C2342.568,992.33,2327.239,1006.766,2308.702,1006.766z"/>
			<path style="fill:#FFFFFF;" d="M2091.728,957.38c-6.795,0-13.419-2.608-18.388-7.29c-5.354-5.042-8.426-12.153-8.426-19.507
				V767.91c0-4.588,3.72-8.308,8.308-8.308c4.588,0,8.308,3.72,8.308,8.308v162.673c0,2.835,1.136,5.468,3.201,7.411
				c2.061,1.943,4.761,2.904,7.585,2.755l192.776-11.476c5.37-0.325,9.581-4.791,9.581-10.17V759.388
				c0-2.913-1.189-5.59-3.347-7.545c-2.158-1.959-4.953-2.892-7.845-2.588l-160.357,15.882c-5.297,0.523-7.556,4.344-8.287,5.959
				c-0.726,1.619-2.081,5.846,1.042,10.153l61.16,84.407c1.919,2.649,4.896,4.182,8.165,4.211c0.029,0,0.061,0,0.089,0
				c3.233,0,6.199-1.481,8.142-4.072l67.37-89.758c2.75-3.663,7.959-4.417,11.63-1.659c3.671,2.754,4.413,7.963,1.659,11.63
				l-67.37,89.762c-5.168,6.879-12.899,10.904-21.657,10.713c-8.604-0.073-16.433-4.109-21.479-11.075L2102.428,791
				c-5.703-7.866-6.729-17.853-2.746-26.716c3.983-8.864,12.137-14.725,21.803-15.683l160.356-15.881
				c7.529-0.73,15.041,1.736,20.639,6.807c5.598,5.07,8.807,12.307,8.807,19.861v159.715c0,14.157-11.07,25.909-25.207,26.752
				l-192.772,11.476C2092.782,957.364,2092.251,957.38,2091.728,957.38z"/>
		</g>
		<g>
			
				<linearGradient id="SVGID_00000096750509264584630190000005577460371216977536_" gradientUnits="userSpaceOnUse" x1="1962.7407" y1="787.2461" x2="1291.8989" y2="1776.9028">
				<stop  offset="0" style="stop-color:#FDF53F"/>
				<stop  offset="0.6645" style="stop-color:#E57A58"/>
				<stop  offset="1" style="stop-color:#D93C65"/>
			</linearGradient>
			<path style="fill:url(#SVGID_00000096750509264584630190000005577460371216977536_);" d="M1945.614,977.111v219.278
				c0,26.053-20.472,47.509-46.496,48.731l-274.213,12.885c-27.812,1.306-51.075-20.891-51.075-48.733V977.111
				c0-26.944,21.842-48.785,48.785-48.785h274.213C1923.772,928.325,1945.614,950.167,1945.614,977.111z"/>
			<path style="opacity:0.73;fill:#FFFFFF;" d="M1620.271,1094.422c-9.264-54.331,10.384-84.521,28.499-100.288
				c34.092-29.666,94.884-36.526,154.9-17.486c58.811,18.672,100.274,72.726,92.424,120.499
				c-3.11,18.944-19.209,60.357-99.842,66.93c16.907,8.122,39.858,18.148,60.915,24.051l0.012,0.005
				c3.935,1.11,6.414,4.854,5.895,8.907c-0.517,4.025-3.839,7.007-7.888,7.089c-2.372,0.047-5.366,0.09-8.91,0.09
				C1796.123,1204.218,1637.601,1196.072,1620.271,1094.422z M1853.202,1202.212h0.005H1853.202z M1854.866,1189.494
				c0.005,0,0.014,0,0.019,0C1854.877,1189.494,1854.87,1189.494,1854.866,1189.494z M1767.626,1150.278
				c66.485,1.395,108.035-19.016,114.03-55.503c6.602-40.194-31.138-87.899-82.412-104.18
				c-45.277-14.362-106.384-15.438-140.87,14.581c-22.23,19.344-30.195,48.548-23.678,86.788
				c12.841,75.338,118.16,92.924,180.412,96.678c-27.346-11.437-49.832-23.908-51.177-24.655l-25.546-14.243L1767.626,1150.278z"/>
		</g>
		<g>
			
				<linearGradient id="SVGID_00000085960962309197471690000004136243588126125195_" gradientUnits="userSpaceOnUse" x1="1700.2948" y1="1204.4646" x2="318.9283" y2="2116.6887">
				<stop  offset="0" style="stop-color:#FDF53F"/>
				<stop  offset="1" style="stop-color:#D93C65"/>
			</linearGradient>
			<path style="fill:url(#SVGID_00000085960962309197471690000004136243588126125195_);" d="M508.216,1368.706l1199.068-5.244
				c11.467-0.103,20.8,9.2,20.734,20.667l-2.558,419.709c-0.066,11.543-9.603,20.769-21.142,20.425
				c-105.731-3.152-1189.438-17.061-1210.16-16.194c-20.478,0.857-9.352-330.591-6.296-419.533
				C488.24,1377.54,497.213,1368.805,508.216,1368.706z"/>
			<path style="fill:#FFFFFF;" d="M1704.943,1808.031l-0.141-0.004c-67.573-2.016-715.158-10.099-1026.371-13.983
				c-90.997-1.135-155.592-1.94-172.814-2.183l-1.606-0.023l-0.281-1.583c-7.355-41.492-7.229-180.211,0.365-401.163
				c0.08-2.304,1.954-4.127,4.266-4.146l1199.075-5.239c1.181,0,2.274,0.452,3.086,1.272c0.822,0.82,1.258,1.879,1.251,3.057
				l-2.56,419.713C1709.201,1806.11,1707.285,1808.031,1704.943,1808.031z M507.29,1787.997c19.372,0.266,82.834,1.059,171.191,2.16
				c311.224,3.884,958.832,11.967,1026.438,13.983l0.114,0.008c0.118-0.004,0.294-0.194,0.295-0.422l2.56-419.713l-0.441-2.361
				l0.009,1.944l-1199.067,5.239c-0.22,0.004-0.399,0.171-0.406,0.395C500.491,1607.163,500.256,1744.895,507.29,1787.997z"/>
			<path style="opacity:0.64;fill:#FFFFFF;" d="M559.519,1477.097L559.519,1477.097c0,11.35,3.787,20.551,8.458,20.551h459.304
				c4.671,0,8.458-9.201,8.458-20.551l0,0c0-11.35-3.787-20.551-8.458-20.551H567.977
				C563.306,1456.546,559.519,1465.746,559.519,1477.097z"/>
			<path style="opacity:0.64;fill:#FFFFFF;" d="M559.519,1547.155L559.519,1547.155c0,11.35,3.787,20.551,8.458,20.551h459.304
				c4.671,0,8.458-9.201,8.458-20.551l0,0c0-11.35-3.787-20.551-8.458-20.551H567.977
				C563.306,1526.604,559.519,1535.805,559.519,1547.155z"/>
			<path style="opacity:0.64;fill:#FFFFFF;" d="M559.519,1617.213L559.519,1617.213c0,11.35,3.787,20.551,8.458,20.551h459.304
				c4.671,0,8.458-9.201,8.458-20.551l0,0c0-11.35-3.787-20.551-8.458-20.551H567.977
				C563.306,1596.662,559.519,1605.863,559.519,1617.213z"/>
			<path style="opacity:0.64;fill:#FFFFFF;" d="M559.519,1687.271L559.519,1687.271c0,11.35,3.787,20.551,8.458,20.551h459.304
				c4.671,0,8.458-9.201,8.458-20.551l0,0c0-11.35-3.787-20.551-8.458-20.551H567.977
				C563.306,1666.72,559.519,1675.921,559.519,1687.271z"/>
			<g>
				<circle style="fill:#FFFFFF;" cx="1152.108" cy="1491.575" r="79.896"/>
				<circle style="fill:#FFFFFF;" cx="1350.674" cy="1491.575" r="79.896"/>
				<circle style="fill:#FFFFFF;" cx="1549.24" cy="1494.19" r="79.896"/>
				<g>
					
						<linearGradient id="SVGID_00000080176967501633725990000016399401983972578182_" gradientUnits="userSpaceOnUse" x1="1260.9136" y1="1390.9302" x2="982.3568" y2="1655.2882">
						<stop  offset="0" style="stop-color:#A737D5"/>
						<stop  offset="1" style="stop-color:#EF497A"/>
					</linearGradient>
					<path style="fill:url(#SVGID_00000080176967501633725990000016399401983972578182_);" d="M1199.582,1474.689
						c2.473,6.014,3.846,12.596,3.846,19.501c0,28.343-22.977,51.32-51.32,51.32c-28.344,0-51.32-22.977-51.32-51.32
						c0-28.343,22.976-51.32,51.32-51.32c0.868,0,1.731,0.023,2.588,0.065v-13.009c-0.859-0.034-1.721-0.057-2.588-0.057
						c-35.523,0-64.32,28.797-64.32,64.32c0,35.523,28.797,64.32,64.32,64.32c35.522,0,64.32-28.797,64.32-64.32
						c0-8.747-1.749-17.084-4.912-24.686L1199.582,1474.689z"/>
					
						<linearGradient id="SVGID_00000001665357766591202440000010675480049513887167_" gradientUnits="userSpaceOnUse" x1="1440.6842" y1="1407.0052" x2="1193.4072" y2="1641.6779">
						<stop  offset="0" style="stop-color:#A737D5"/>
						<stop  offset="1" style="stop-color:#EF497A"/>
					</linearGradient>
					<path style="fill:url(#SVGID_00000001665357766591202440000010675480049513887167_);" d="M1377.147,1537.61
						c-7.918,4.997-17.29,7.9-27.344,7.9c-28.344,0-51.32-22.977-51.32-51.32c0-28.343,22.976-51.32,51.32-51.32
						c0.868,0,1.731,0.023,2.588,0.065v-13.009c-0.859-0.034-1.721-0.057-2.588-0.057c-35.523,0-64.32,28.797-64.32,64.32
						c0,35.523,28.797,64.32,64.32,64.32c12.397,0,23.973-3.511,33.794-9.588L1377.147,1537.61z"/>
					
						<linearGradient id="SVGID_00000098901585514975082870000007908016992540646556_" gradientUnits="userSpaceOnUse" x1="1640.9723" y1="1407.4956" x2="1393.6948" y2="1642.1688">
						<stop  offset="0" style="stop-color:#A737D5"/>
						<stop  offset="1" style="stop-color:#EF497A"/>
					</linearGradient>
					<path style="fill:url(#SVGID_00000098901585514975082870000007908016992540646556_);" d="M1592.065,1523.044
						c-9.236,13.559-24.797,22.466-42.441,22.466c-28.343,0-51.32-22.977-51.32-51.32c0-28.343,22.977-51.32,51.32-51.32
						c0.868,0,1.731,0.023,2.589,0.065v-13.009c-0.859-0.034-1.721-0.057-2.589-0.057c-35.523,0-64.319,28.797-64.319,64.32
						c0,35.523,28.797,64.32,64.319,64.32c21.975,0,41.373-11.023,52.975-27.839L1592.065,1523.044z"/>
				</g>
				<g style="opacity:0.64;">
					<path style="fill:#FFFFFF;" d="M1217.207,1605.315h-130.198c-8.172,0-14.797,6.625-14.797,14.797
						c0,8.172,6.625,14.797,14.797,14.797h130.198c8.172,0,14.798-6.625,14.798-14.797
						C1232.004,1611.94,1225.379,1605.315,1217.207,1605.315z"/>
					<path style="fill:#FFFFFF;" d="M1415.773,1605.315h-130.198c-8.172,0-14.797,6.625-14.797,14.797
						c0,8.172,6.625,14.797,14.797,14.797h130.198c8.173,0,14.797-6.625,14.797-14.797
						C1430.57,1611.94,1423.945,1605.315,1415.773,1605.315z"/>
					<path style="fill:#FFFFFF;" d="M1484.141,1634.909h130.198c8.172,0,14.797-6.625,14.797-14.797
						c0-8.172-6.625-14.797-14.797-14.797h-130.198c-8.172,0-14.797,6.625-14.797,14.797
						C1469.343,1628.285,1475.968,1634.909,1484.141,1634.909z"/>
					<path style="fill:#FFFFFF;" d="M1217.207,1651.351h-130.198c-8.172,0-14.797,6.625-14.797,14.797v87.139
						c0,8.172,6.625,14.797,14.797,14.797h130.198c8.172,0,14.798-6.625,14.798-14.797v-87.139
						C1232.004,1657.976,1225.379,1651.351,1217.207,1651.351z"/>
					<path style="fill:#FFFFFF;" d="M1415.773,1651.351h-130.198c-8.172,0-14.797,6.625-14.797,14.797v87.139
						c0,8.172,6.625,14.797,14.797,14.797h130.198c8.173,0,14.797-6.625,14.797-14.797v-87.139
						C1430.57,1657.976,1423.945,1651.351,1415.773,1651.351z"/>
					<path style="fill:#FFFFFF;" d="M1614.339,1651.351h-130.198c-8.172,0-14.797,6.625-14.797,14.797v87.139
						c0,8.172,6.625,14.797,14.797,14.797h130.198c8.172,0,14.797-6.625,14.797-14.797v-87.139
						C1629.136,1657.976,1622.511,1651.351,1614.339,1651.351z"/>
				</g>
			</g>
		</g>
		<g>
			<g>
				
					<linearGradient id="SVGID_00000139259545540118269910000003189076715669175961_" gradientUnits="userSpaceOnUse" x1="-741.1788" y1="1909.2454" x2="-1273.6023" y2="2755.6626" gradientTransform="matrix(-1 0 0 1 1250.9535 0)">
					<stop  offset="0" style="stop-color:#CB236D"/>
					<stop  offset="1" style="stop-color:#4C246D"/>
				</linearGradient>
				<path style="fill:url(#SVGID_00000139259545540118269910000003189076715669175961_);" d="M3006.127,1571.86
					c0,0,201.009,111.35,217.638,299.805c16.63,188.454,1.384,970.651-401.688,1163.171s-936.603,148.15-1140.828,127.104
					c-204.224-21.046-317.458-159.84-342.753-255.404c-25.294-95.563-66.151-451.549,148.689-566.378
					c214.84-114.829,440.486-290.751,665.96-462.052C2378.621,1706.804,2765.033,1427.174,3006.127,1571.86z"/>
				
					<linearGradient id="SVGID_00000056397429263558830790000009935339826287708074_" gradientUnits="userSpaceOnUse" x1="-244.767" y1="2511.2134" x2="-48.0937" y2="2716.6279" gradientTransform="matrix(-1 0 0 1 1250.9535 0)">
					<stop  offset="0" style="stop-color:#2B3582"/>
					<stop  offset="1" style="stop-color:#150E42"/>
				</linearGradient>
				<path style="fill:url(#SVGID_00000056397429263558830790000009935339826287708074_);" d="M1550.54,2405.125
					c0,0,54.251,2.869,60.904,114.483c0,0-125.799,112.773-295.729,139.615c-12.757,2.015,17.834-87.085,22.434-99.155
					C1360.03,2502.641,1428.945,2465.656,1550.54,2405.125z"/>
				
					<linearGradient id="SVGID_00000171701164276697530470000012073018185041914261_" gradientUnits="userSpaceOnUse" x1="-548.3242" y1="2307.4541" x2="-343.5458" y2="1536.1233" gradientTransform="matrix(-1 0 0 1 1250.9535 0)">
					<stop  offset="0" style="stop-color:#53D8FF"/>
					<stop  offset="1" style="stop-color:#3840F7"/>
				</linearGradient>
				<path style="fill:url(#SVGID_00000171701164276697530470000012073018185041914261_);" d="M2161.523,2273.888H2047.04
					c0,0-351.381-388.068-581.843-427.219c0,0-160.423,204.779,8.544,587.401c13.593,30.779,51.608,44.454,79.965,26.342
					c8.482-5.417,14.572-12.677,18.271-21.779l-13.588-326.697c0,0,299.73,262.147,351.828,312.736
					C1962.316,2475.26,2227.135,2444.426,2161.523,2273.888z"/>
				
					<linearGradient id="SVGID_00000162325374303006206650000000411362566651011005_" gradientUnits="userSpaceOnUse" x1="16.1315" y1="3026.8044" x2="388.1462" y2="3299.8425" gradientTransform="matrix(-1 0 0 1 1250.9535 0)">
					<stop  offset="0" style="stop-color:#2B3582"/>
					<stop  offset="1" style="stop-color:#150E42"/>
				</linearGradient>
				<path style="fill:url(#SVGID_00000162325374303006206650000000411362566651011005_);" d="M1054.707,3088.656
					c47.975-42.038,124.415-89.212,234.765-102.736l37.319,22.827c0,0-23.797,35.102-67.271,72.179
					c-39.956,23.207-101.653,54.639-152.802,61.452C1056.989,3149.002,1049.655,3118.952,1054.707,3088.656z"/>
				
					<linearGradient id="SVGID_00000097464976844614108960000015923790922845116556_" gradientUnits="userSpaceOnUse" x1="193.8945" y1="2881.5898" x2="-588.8151" y2="2242.2258" gradientTransform="matrix(-1 0 0 1 1250.9535 0)">
					<stop  offset="0" style="stop-color:#FDF53F"/>
					<stop  offset="0.6645" style="stop-color:#E57A58"/>
					<stop  offset="1" style="stop-color:#D93C65"/>
				</linearGradient>
				<path style="fill:url(#SVGID_00000097464976844614108960000015923790922845116556_);" d="M1338.147,2560.068
					c29.555,9.566,42.554,51.439,117.551,23.75c72.557-26.789,126.495-61.337,154.245-81.26c0.62,5.399,1.141,11.038,1.5,17.052
					c0,0-132.643,126.165-302.573,153.006c-12.757,2.015-22.867-10.72-18.268-22.788
					C1298.853,2628.171,1313.731,2595.326,1338.147,2560.068z"/>
				
					<linearGradient id="SVGID_00000128486231797971308030000005607323342540168596_" gradientUnits="userSpaceOnUse" x1="406.2133" y1="3340.0198" x2="-376.4949" y2="2700.657" gradientTransform="matrix(-1 0 0 1 1250.9535 0)">
					<stop  offset="0" style="stop-color:#FDF53F"/>
					<stop  offset="0.6645" style="stop-color:#E57A58"/>
					<stop  offset="1" style="stop-color:#D93C65"/>
				</linearGradient>
				<path style="fill:url(#SVGID_00000128486231797971308030000005607323342540168596_);" d="M1018.566,3124.554
					c9.457-10.749,21.53-23.095,36.141-35.898c-5.053,30.296,2.281,60.346,52.011,53.723c51.15-6.813,112.847-38.245,152.802-61.452
					c-50.078,42.71-126.273,88.041-222.443,85.379C1015.716,3165.715,1004.451,3140.597,1018.566,3124.554z"/>
				
					<linearGradient id="SVGID_00000145780996782200048660000015448824370765305234_" gradientUnits="userSpaceOnUse" x1="21.4754" y1="2508.9316" x2="-756.6832" y2="2802.4473" gradientTransform="matrix(-1 0 0 1 1250.9535 0)">
					<stop  offset="0" style="stop-color:#53D8FF"/>
					<stop  offset="1" style="stop-color:#3840F7"/>
				</linearGradient>
				<path style="fill:url(#SVGID_00000145780996782200048660000015448824370765305234_);" d="M2157.335,2356.723l-536.119,5.804
					c0,0-306.163,253.306-361.695,639.556c0,0-9.218,28.408,46.123,33.267c0,0,185.104-120.895,305.799-334.638
					c147.991-262.08,441.181-144.107,441.181-144.107c96.334-69.452,232.458-83.596,335.01-106.734L2157.335,2356.723z"/>
				
					<linearGradient id="SVGID_00000141453882892168885520000000113621002092308159_" gradientUnits="userSpaceOnUse" x1="-584.9" y1="2017.7117" x2="-837.4604" y2="2318.0537" gradientTransform="matrix(-1 0 0 1 1250.9535 0)">
					<stop  offset="0" style="stop-color:#F9B776"/>
					<stop  offset="1" style="stop-color:#F47960"/>
				</linearGradient>
				<path style="fill:url(#SVGID_00000141453882892168885520000000113621002092308159_);" d="M2144.674,1924.852
					c0,0-57.715,289.238-340.497,403.663l-100.588-11.855l-23.736,37.845l235.95,7.519c0,0,201.688-79.884,308.547-297.558
					C2227.88,2057.275,2286.724,1935.775,2144.674,1924.852z"/>
				
					<linearGradient id="SVGID_00000167377686554882816000000008577092870658108862_" gradientUnits="userSpaceOnUse" x1="-1295.1663" y1="1461.1736" x2="-890.5142" y2="2880.8318" gradientTransform="matrix(-1 0 0 1 1250.9535 0)">
					<stop  offset="0" style="stop-color:#FDF53F"/>
					<stop  offset="0.6645" style="stop-color:#E57A58"/>
					<stop  offset="1" style="stop-color:#D93C65"/>
				</linearGradient>
				<path style="fill:url(#SVGID_00000167377686554882816000000008577092870658108862_);" d="M2113.746,2351.996
					c0,0,65.63-178.404,79.736-351.752c0,0-48.013-41.264-78.025-59.066c-9.719-5.766-13.388-17.96-8.475-28.137
					c22.064-45.708,155.497-225.182,165.491-227.676c54.328-13.559,277.135-119.497,434.057,95.148
					c67.345,92.119-13.365,375.691-318.897,669.359l-63.031,12.056L2113.746,2351.996z"/>
				
					<linearGradient id="SVGID_00000123412550887325534860000011473072755469029007_" gradientUnits="userSpaceOnUse" x1="-879.3958" y1="2290.9875" x2="-374.5681" y2="1600.356" gradientTransform="matrix(-1 0 0 1 1250.9535 0)">
					<stop  offset="0" style="stop-color:#F9B776"/>
					<stop  offset="1" style="stop-color:#F47960"/>
				</linearGradient>
				<path style="fill:url(#SVGID_00000123412550887325534860000011473072755469029007_);" d="M2366.639,2039.336
					c0,0-182.342,215.904-415.469,247.467c0,0-60.249-54.928-105.051-35.317c-44.801,19.61-106.232,106.171-106.232,106.171h299.334
					c0,0,283.032-9.973,424.462-181.603C2452.304,2115.998,2418.224,2080.124,2366.639,2039.336z"/>
				
					<linearGradient id="SVGID_00000106862468276942016500000001851955703775680424_" gradientUnits="userSpaceOnUse" x1="-1188.2134" y1="1718.6617" x2="-1169.6183" y2="1551.3059" gradientTransform="matrix(-1 0 0 1 1250.9535 0)">
					<stop  offset="0" style="stop-color:#F9B776"/>
					<stop  offset="1" style="stop-color:#F47960"/>
				</linearGradient>
				<path style="fill:url(#SVGID_00000106862468276942016500000001851955703775680424_);" d="M2473.014,1533.932l39.898,133.067
					c1.828,6.096-0.43,12.699-5.682,16.295c-19.208,13.156-69.412,39.319-138.282,13.893c-7.876-2.908-13.273-10.264-13.956-18.632
					l-9.458-115.922L2473.014,1533.932z"/>
				<g>
					
						<linearGradient id="SVGID_00000077298315732442053670000005584386172083762839_" gradientUnits="userSpaceOnUse" x1="-1089.0334" y1="1572.678" x2="-1170.9941" y2="1302.3519" gradientTransform="matrix(-1 0 0 1 1250.9535 0)">
						<stop  offset="0" style="stop-color:#F9B776"/>
						<stop  offset="1" style="stop-color:#F47960"/>
					</linearGradient>
					<path style="fill:url(#SVGID_00000077298315732442053670000005584386172083762839_);" d="M2239.394,1426.168
						c0,0,19.616,137.938,72.603,180.357s156.224,10.479,191.093-93.509l-69.477-177.801L2239.394,1426.168z"/>
					
						<linearGradient id="SVGID_00000042012893414460380880000007804303440423587215_" gradientUnits="userSpaceOnUse" x1="-1162.8291" y1="1077.2563" x2="-1086.798" y2="1510.915" gradientTransform="matrix(-1 0 0 1 1250.9535 0)">
						<stop  offset="0" style="stop-color:#2B3582"/>
						<stop  offset="1" style="stop-color:#150E42"/>
					</linearGradient>
					<path style="fill:url(#SVGID_00000042012893414460380880000007804303440423587215_);" d="M2441.44,1450.271
						c-4.03,1.299-8.25-1.284-8.879-5.472c-1.912-12.733-6.687-37.933-16.354-55.097c0,0,5.056-18.097-45.736,9.241
						c-50.792,27.339-127.082,67.498-171.997,43.584c-43.791-23.316-88.149-140.655,27.583-118.915
						c4.403,0.827,8.452-2.681,8.123-7.149c-1.422-19.285,0.492-63.653,45.421-77.893c42.044-13.327,19.471,8.274,28.955,19.73
						c2.791,3.37-3.522-11.475,56.222-2.791c20.498,2.979,46.8-51.441,97.153-29.251c41.475,18.277,47.925,43.824,47.24,59.743
						c-0.222,5.158,5.013,8.653,9.702,6.493c12.702-5.85,33.134-8.889,52.705,15.632c27.057,33.901-11.608,63.299-23.208,71.007
						c-1.9,1.263-3.082,3.356-3.096,5.638c-0.109,17.63-2.854,94.534-41.399,137.913c-3.337,3.756-9.506,2.655-11.45-1.978
						l-29.677-70.71c-1.378-3.284-5.04-4.967-8.43-3.875L2441.44,1450.271z"/>
					
						<linearGradient id="SVGID_00000080172718092580877570000003945132967761006238_" gradientUnits="userSpaceOnUse" x1="-1173.9276" y1="1598.4177" x2="-1255.8887" y2="1328.0907" gradientTransform="matrix(-1 0 0 1 1250.9535 0)">
						<stop  offset="0" style="stop-color:#F9B776"/>
						<stop  offset="1" style="stop-color:#F47960"/>
					</linearGradient>
					<path style="fill:url(#SVGID_00000080172718092580877570000003945132967761006238_);" d="M2440.813,1464.627
						c0,0,18.122-73.813,45.651-49.848c27.529,23.965-7.177,76.712-38.713,86.765L2440.813,1464.627z"/>
				</g>
				
					<linearGradient id="SVGID_00000168796318320793984440000001886060550126358940_" gradientUnits="userSpaceOnUse" x1="-504.0044" y1="2134.7332" x2="-119.8554" y2="2134.7332" gradientTransform="matrix(-1 0 0 1 1250.9535 0)">
					<stop  offset="0" style="stop-color:#2B3582"/>
					<stop  offset="1" style="stop-color:#150E42"/>
				</linearGradient>
				<path style="fill:url(#SVGID_00000168796318320793984440000001886060550126358940_);" d="M1754.958,2374.41l-134.401-448.211
					c-5.483-18.286-21.726-31.258-40.772-32.561l-181.458-12.416c-18.444-1.262-32.163,16.756-26.04,34.2l150.248,428.037
					c4.841,13.789,17.219,23.536,31.76,25.004l178.689,19.843L1754.958,2374.41z"/>
				
					<linearGradient id="SVGID_00000064346390571699062230000011219156187882635450_" gradientUnits="userSpaceOnUse" x1="-181.9361" y1="1971.8203" x2="-415.7242" y2="2209.0215" gradientTransform="matrix(-1 0 0 1 1250.9535 0)">
					<stop  offset="0" style="stop-color:#FDF53F"/>
					<stop  offset="1" style="stop-color:#D93C65"/>
				</linearGradient>
				<path style="fill:url(#SVGID_00000064346390571699062230000011219156187882635450_);" d="M1507.087,2078.109
					c10.034,20.255,27.363,32.119,38.704,26.501c11.341-5.618,12.401-26.593,2.367-46.847
					c-10.034-20.255-27.362-32.119-38.703-26.501C1498.113,2036.881,1497.053,2057.854,1507.087,2078.109z"/>
				
					<linearGradient id="SVGID_00000132088064807799820480000013859436904405503365_" gradientUnits="userSpaceOnUse" x1="-457.3796" y1="2302.6548" x2="-764.5474" y2="2386.8416" gradientTransform="matrix(-1 0 0 1 1250.9535 0)">
					<stop  offset="0" style="stop-color:#2B3582"/>
					<stop  offset="1" style="stop-color:#150E42"/>
				</linearGradient>
				<path style="fill:url(#SVGID_00000132088064807799820480000013859436904405503365_);" d="M1732.984,2388.307
					c0.292,0,0.583-0.007,0.877-0.023l380.746-19.245c9.413-0.473,16.657-8.489,16.182-17.901
					c-0.475-9.416-8.526-16.815-17.905-16.182l-380.746,19.245c-9.413,0.473-16.657,8.49-16.181,17.902
					C1716.418,2381.221,1723.957,2388.307,1732.984,2388.307z"/>
				<path style="fill:#E78456;" d="M2193.478,2003.262c1.661,0,3.03-1.357,3.018-3.03c-0.257-79.541,30.441-185.141,30.757-186.2
					c0.468-1.597-0.445-3.276-2.047-3.75c-1.626-0.456-3.287,0.445-3.755,2.053c-0.316,1.065-31.26,107.49-30.99,187.92
					C2190.46,2001.917,2191.817,2003.262,2193.478,2003.262z"/>
				<path style="fill:#E78456;" d="M2366.634,2042.354c0.889,0,1.778-0.392,2.375-1.146c0.831-1.059,84.115-106.916,112.742-179.467
					c0.62-1.556-0.152-3.311-1.697-3.919c-1.556-0.614-3.311,0.14-3.919,1.696c-28.311,71.726-111.034,176.893-111.876,177.946
					c-1.03,1.31-0.807,3.211,0.503,4.241C2365.312,2042.144,2365.979,2042.354,2366.634,2042.354z"/>
				<path style="fill:#E78456;" d="M2483.822,2204.209l2.246-0.959c120.475-51.581,194.892-195.419,195.629-196.863
					c0.76-1.492,0.164-3.311-1.322-4.065c-1.451-0.749-3.276-0.181-4.06,1.316c-0.725,1.421-73.247,141.568-190.388,193.085
					l-12.412-17.537c-0.983-1.375-2.866-1.679-4.212-0.725c-1.369,0.965-1.685,2.849-0.725,4.211L2483.822,2204.209z"/>
			</g>
		</g>
		<g>
			<g>
				<g>
					
						<linearGradient id="SVGID_00000033328467878764353590000006465872370623537797_" gradientUnits="userSpaceOnUse" x1="3053.2219" y1="2805.4976" x2="3311.5542" y2="1915.0764">
						<stop  offset="0" style="stop-color:#53D8FF"/>
						<stop  offset="0.4242" style="stop-color:#4898FC"/>
						<stop  offset="1" style="stop-color:#3840F7"/>
					</linearGradient>
					<path style="fill:url(#SVGID_00000033328467878764353590000006465872370623537797_);" d="M3099.774,3074.305
						c0,0,219.291-506.597,53.263-1040.306c-1.084-3.485-7.252-2.816-7.706,0.844
						C3105.306,2357.635,3093.371,2707.222,3099.774,3074.305z"/>
					<path style="fill:#FFFFFF;" d="M3100.648,3063.637c-0.253,0-0.511-0.033-0.765-0.105c-1.499-0.424-2.371-1.98-1.95-3.476
						c38.752-137.664,53.502-372.034,59.052-544.402c6.018-186.856,2.816-343.096,2.783-344.653
						c-0.033-1.557,1.202-2.844,2.756-2.877c0.022,0,0.042,0,0.061,0c1.529,0,2.783,1.221,2.816,2.756
						c0.032,1.557,3.237,157.95-2.787,344.955c-5.561,172.681-20.354,407.535-59.258,545.75
						C3103.007,3062.828,3101.877,3063.637,3100.648,3063.637z"/>
				</g>
				<g>
					
						<linearGradient id="SVGID_00000008137968146881467980000005718750707991560082_" gradientUnits="userSpaceOnUse" x1="2928.2795" y1="2691.488" x2="3087.6758" y2="1790.0735">
						<stop  offset="0" style="stop-color:#53D8FF"/>
						<stop  offset="0.4242" style="stop-color:#4898FC"/>
						<stop  offset="1" style="stop-color:#3840F7"/>
					</linearGradient>
					<path style="fill:url(#SVGID_00000008137968146881467980000005718750707991560082_);" d="M3049.556,2991.744
						c0,0,135.469-621.579-120.553-1250.585c-1.672-4.107-7.754-2.903-7.597,1.514
						C2935.213,2132.24,2981.713,2552.102,3049.556,2991.744z"/>
					<path style="fill:#FFFFFF;" d="M3048.177,2978.339c-0.088,0-0.178-0.006-0.269-0.011c-1.548-0.149-2.685-1.523-2.536-3.07
						c30.421-320.934-85.477-1062.665-86.651-1070.118c-0.242-1.54,0.809-2.981,2.346-3.224c1.532-0.264,2.976,0.809,3.221,2.343
						c1.174,7.464,117.179,749.889,86.689,1071.527C3050.84,2977.244,3049.613,2978.339,3048.177,2978.339z"/>
				</g>
				<g>
					
						<linearGradient id="SVGID_00000005946242692201710030000011034916722073629627_" gradientUnits="userSpaceOnUse" x1="3016.1045" y1="2941.2097" x2="2718.2363" y2="1885.1332">
						<stop  offset="0" style="stop-color:#53D8FF"/>
						<stop  offset="0.4242" style="stop-color:#4898FC"/>
						<stop  offset="1" style="stop-color:#3840F7"/>
					</linearGradient>
					<path style="fill:url(#SVGID_00000005946242692201710030000011034916722073629627_);" d="M3028.06,3160.284
						c0,0,64.903-542.243-257.51-1030.217c-2.105-3.186-7.976-1.237-7.333,2.443
						C2819.99,2457.101,2912.395,2802.047,3028.06,3160.284z"/>
					<path style="fill:#FFFFFF;" d="M3024.899,3149.71c-1.529,0-2.786-1.221-2.816-2.761
						c-2.874-142.972-58.175-375.638-104.063-545.64c-49.745-184.304-99.454-336.709-99.949-338.228
						c-0.484-1.479,0.322-3.069,1.801-3.553c1.48-0.468,3.07,0.33,3.551,1.804c0.498,1.518,50.245,154.04,100.029,338.481
						c45.971,170.316,101.379,403.476,104.264,547.026c0.031,1.551-1.204,2.838-2.758,2.871
						C3024.938,3149.71,3024.918,3149.71,3024.899,3149.71z"/>
				</g>
			</g>
			<g>
				
					<linearGradient id="SVGID_00000134213595893738159220000009415996547462899592_" gradientUnits="userSpaceOnUse" x1="3313.2302" y1="2600.0234" x2="2917.4863" y2="3122.1853">
					<stop  offset="0" style="stop-color:#A737D5"/>
					<stop  offset="1" style="stop-color:#EF497A"/>
				</linearGradient>
				<path style="fill:url(#SVGID_00000134213595893738159220000009415996547462899592_);" d="M2894.627,2861.501h298.052
					c19.535,0,33.99,18.174,29.596,37.209c-19.069,82.617-41.925,166.443-88.686,251.532c-8.637,15.717-25.083,25.571-43.017,25.571
					h-97.258c-17.662,0-33.868-9.705-42.238-25.257c-37.464-69.619-73.508-152.609-91.304-246.798
					C2855.631,2881.835,2872.318,2861.501,2894.627,2861.501z"/>
			</g>
		</g>
	</g>
</g>
</svg>
